<svg width="22" height="16" viewBox="0 0 22 16" fill="none" xmlns="http://www.w3.org/2000/svg">
<path d="M13 7.83789L9.5 9.83789V5.83789L13 7.83789Z" fill="white" stroke="white" stroke-width="1.5" stroke-linecap="round" stroke-linejoin="round"/>
<path d="M1 8.54579V7.12979C1 4.23479 1 2.78679 1.905 1.85579C2.811 0.923793 4.237 0.883793 7.088 0.802793C8.438 0.764793 9.818 0.737793 11 0.737793C12.182 0.737793 13.561 0.764793 14.912 0.802793C17.763 0.883793 19.189 0.923793 20.094 1.85579C20.999 2.78779 21 4.23579 21 7.12979V8.54479C21 11.4408 21 12.8878 20.095 13.8198C19.189 14.7508 17.764 14.7918 14.912 14.8718C13.562 14.9108 12.182 14.9378 11 14.9378C9.818 14.9378 8.439 14.9108 7.088 14.8718C4.237 14.7918 2.811 14.7518 1.905 13.8198C0.999 12.8878 1 11.4398 1 8.54579Z" stroke="white" stroke-width="1.2"/>
</svg>
