<svg width="33" height="44" viewBox="0 0 33 44" fill="none" xmlns="http://www.w3.org/2000/svg">
<path fill-rule="evenodd" clip-rule="evenodd" d="M27.7542 43.1602H5.24634C2.72681 43.1602 0.711182 41.1445 0.711182 38.625V7.55078C0.711182 5.03125 2.72681 3.01562 5.24634 3.01562H27.7542C30.2737 3.01562 32.2893 5.03125 32.2893 7.55078V38.625C32.2893 41.1445 30.2737 43.1602 27.7542 43.1602ZM25.7385 39.8848H7.26196C7.01001 39.8848 6.75806 39.6328 6.75806 39.3809C6.75806 39.0449 7.01001 38.877 7.26196 38.877H25.7385C25.9905 38.877 26.2424 39.0449 26.2424 39.3809C26.2424 39.6328 25.9905 39.8848 25.7385 39.8848ZM25.7385 13.3457H7.26196C7.01001 13.3457 6.75806 13.0938 6.75806 12.8418C6.75806 12.5059 7.01001 12.3379 7.26196 12.3379H25.7385C25.9905 12.3379 26.2424 12.5059 26.2424 12.8418C26.2424 13.0938 25.9905 13.3457 25.7385 13.3457ZM16.5002 36.6934C14.6526 36.6934 12.8049 36.2734 11.2092 35.2656C8.6897 33.8379 6.92603 31.5703 6.25415 28.7988C5.49829 26.1113 5.83423 23.2559 7.26196 20.7363C9.1936 17.4609 12.7209 15.4453 16.5002 15.4453C18.3479 15.4453 20.1956 15.9492 21.7913 16.873H21.8752C24.3108 18.3008 26.0745 20.5684 26.7463 23.3398C27.5022 26.1113 27.1663 28.9668 25.7385 31.4023C23.8069 34.6777 20.2795 36.6934 16.5002 36.6934ZM16.5002 16.4531C13.0569 16.4531 9.86548 18.3008 8.18579 21.2402C6.84204 23.5078 6.5061 26.1113 7.17798 28.5469C7.84985 31.0664 9.44556 33.166 11.7131 34.4258C13.1409 35.2656 14.8206 35.6855 16.5002 35.6855C19.9436 35.6855 23.135 33.8379 24.8147 30.8984C26.1584 28.7148 26.4944 26.1113 25.8225 23.5918C25.1506 21.0723 23.5549 19.0566 21.2874 17.7129C19.8596 16.873 18.1799 16.4531 16.5002 16.4531ZM20.8674 32.7461H12.1331C11.5452 32.7461 11.0413 32.2422 11.0413 31.6543V25.8594C11.0413 25.2715 11.5452 24.6836 12.1331 24.6836H12.385V23.5078C12.385 21.2402 14.2327 19.3926 16.5002 19.3926C18.7678 19.3926 20.6155 21.2402 20.6155 23.5078V24.6836H20.8674C21.4553 24.6836 21.9592 25.2715 21.9592 25.8594V31.6543C21.9592 32.2422 21.4553 32.7461 20.8674 32.7461ZM13.3928 24.6836H19.6077V23.5078C19.6077 21.7441 18.1799 20.4004 16.5002 20.4004C14.8206 20.4004 13.3928 21.7441 13.3928 23.5078V24.6836ZM12.1331 25.6914C12.1331 25.6914 12.0491 25.7754 12.0491 25.8594V31.6543C12.0491 31.7383 12.1331 31.7383 12.1331 31.7383H20.8674C20.8674 31.7383 20.9514 31.7383 20.9514 31.6543V25.8594C20.9514 25.7754 20.8674 25.6914 20.8674 25.6914H20.1116H12.8889H12.1331ZM16.5002 29.3027C16.3323 29.3027 16.2483 29.3867 16.1643 29.4707C16.0803 29.6387 16.1643 29.8906 16.3323 29.9746H16.5002C16.5842 29.9746 16.7522 29.9746 16.8362 29.8066C16.8362 29.7227 16.8362 29.6387 16.8362 29.5547C16.8362 29.4707 16.7522 29.3867 16.6682 29.3867C16.5842 29.3027 16.5842 29.3027 16.5002 29.3027ZM15.9963 28.3789V26.9512C15.9963 26.6992 16.2483 26.4473 16.5002 26.4473C16.7522 26.4473 17.0042 26.6992 17.0042 26.9512V28.3789C17.0881 28.4629 17.0881 28.4629 17.1721 28.4629C17.5081 28.6309 17.676 28.9668 17.844 29.3027C17.928 29.6387 17.844 30.0586 17.676 30.3105C17.4241 30.7305 17.0042 30.9824 16.5002 30.9824C16.2483 30.9824 15.9963 30.9824 15.8284 30.8145C15.1565 30.4785 14.9885 29.6387 15.3245 28.9668C15.4924 28.7148 15.7444 28.5469 15.9963 28.3789ZM6.84204 9.98633C5.49829 9.98633 4.40649 8.89453 4.40649 7.63477C4.40649 6.29102 5.49829 5.19922 6.84204 5.19922C8.10181 5.19922 9.1936 6.29102 9.1936 7.63477C9.1936 8.89453 8.10181 9.98633 6.84204 9.98633ZM26.1584 9.98633C24.8987 9.98633 23.8069 8.89453 23.8069 7.63477C23.8069 6.29102 24.8987 5.19922 26.1584 5.19922C27.5022 5.19922 28.594 6.29102 28.594 7.63477C28.594 8.89453 27.5022 9.98633 26.1584 9.98633ZM26.1584 6.20703C25.4026 6.20703 24.8147 6.79492 24.8147 7.63477C24.8147 8.39062 25.4026 8.97852 26.1584 8.97852C26.9983 8.97852 27.5862 8.39062 27.5862 7.63477C27.5862 6.79492 26.9983 6.20703 26.1584 6.20703ZM19.6917 9.98633C18.4319 9.98633 17.3401 8.89453 17.3401 7.63477C17.3401 6.29102 18.4319 5.19922 19.6917 5.19922C21.0354 5.19922 22.1272 6.29102 22.1272 7.63477C22.1272 8.89453 21.0354 9.98633 19.6917 9.98633ZM19.6917 6.20703C18.9358 6.20703 18.3479 6.79492 18.3479 7.63477C18.3479 8.39062 18.9358 8.97852 19.6917 8.97852C20.5315 8.97852 21.1194 8.39062 21.1194 7.63477C21.1194 6.79492 20.5315 6.20703 19.6917 6.20703ZM13.3088 9.98633C11.9651 9.98633 10.8733 8.89453 10.8733 7.63477C10.8733 6.29102 11.9651 5.19922 13.3088 5.19922C14.5686 5.19922 15.6604 6.29102 15.6604 7.63477C15.6604 8.89453 14.5686 9.98633 13.3088 9.98633ZM13.3088 6.20703C12.469 6.20703 11.8811 6.79492 11.8811 7.63477C11.8811 8.39062 12.469 8.97852 13.3088 8.97852C14.0647 8.97852 14.6526 8.39062 14.6526 7.63477C14.6526 6.79492 14.0647 6.20703 13.3088 6.20703ZM6.84204 6.20703C6.0022 6.20703 5.41431 6.79492 5.41431 7.63477C5.41431 8.39062 6.0022 8.97852 6.84204 8.97852C7.5979 8.97852 8.18579 8.39062 8.18579 7.63477C8.18579 6.79492 7.5979 6.20703 6.84204 6.20703Z" fill="white"/>
<path fill-rule="evenodd" clip-rule="evenodd" d="M6.84204 5.19922C6.5061 5.19922 6.33813 5.03125 6.33813 4.7793V0.580078C6.33813 0.328125 6.5061 0.160156 6.84204 0.160156C7.09399 0.160156 7.34595 0.328125 7.34595 0.580078V4.7793C7.34595 5.03125 7.09399 5.19922 6.84204 5.19922Z" fill="white"/>
<path fill-rule="evenodd" clip-rule="evenodd" d="M13.3088 5.19922C12.9729 5.19922 12.8049 5.03125 12.8049 4.7793V0.580078C12.8049 0.328125 12.9729 0.160156 13.3088 0.160156C13.5608 0.160156 13.8127 0.328125 13.8127 0.580078V4.7793C13.8127 5.03125 13.5608 5.19922 13.3088 5.19922Z" fill="white"/>
<path fill-rule="evenodd" clip-rule="evenodd" d="M19.6917 5.19922C19.4397 5.19922 19.1877 5.03125 19.1877 4.7793V0.580078C19.1877 0.328125 19.4397 0.160156 19.6917 0.160156C20.0276 0.160156 20.1956 0.328125 20.1956 0.580078V4.7793C20.1956 5.03125 20.0276 5.19922 19.6917 5.19922Z" fill="white"/>
<path fill-rule="evenodd" clip-rule="evenodd" d="M26.1584 5.19922C25.9065 5.19922 25.6545 5.03125 25.6545 4.7793V0.580078C25.6545 0.328125 25.9065 0.160156 26.1584 0.160156C26.4944 0.160156 26.6624 0.328125 26.6624 0.580078V4.7793C26.6624 5.03125 26.4944 5.19922 26.1584 5.19922Z" fill="white"/>
</svg>
