<svg width="92" height="48" viewBox="0 0 92 48" fill="none" xmlns="http://www.w3.org/2000/svg">
<path fill-rule="evenodd" clip-rule="evenodd" d="M10.203 44.5983C10.4966 44.5865 10.8253 44.6921 11.0836 44.8563C11.3067 45.0089 11.5884 45.3373 11.7176 45.5953C11.8702 45.9238 11.9055 46.1818 11.8585 46.4751C11.8115 46.698 11.6824 47.0499 11.5533 47.261C11.4241 47.4722 11.1306 47.7302 10.9075 47.8241C10.6844 47.9179 10.3791 48 10.2264 48C10.0855 47.9883 9.75685 47.8944 9.49858 47.7771C9.16983 47.6363 8.97014 47.437 8.8175 47.1437C8.71184 46.8974 8.618 46.522 8.618 46.2991C8.618 46.0763 8.70018 45.7009 8.79411 45.478C8.88804 45.2552 9.14626 44.9619 9.34585 44.8329C9.55719 44.7038 9.94474 44.5983 10.203 44.5983ZM10.4379 44.9267C10.297 44.8798 10.0856 44.8797 9.94472 44.9384C9.81556 44.9853 9.62764 45.1496 9.52197 45.3021C9.40457 45.4663 9.33416 45.8065 9.33416 46.1818C9.33416 46.522 9.40465 46.9443 9.49858 47.1203C9.58077 47.3079 9.80378 47.519 9.99161 47.6012C10.2969 47.7419 10.3674 47.7419 10.6609 47.5425C10.8487 47.4252 11.0366 47.2023 11.0718 47.0381C11.1188 46.8739 11.1423 46.4751 11.1305 46.1584C11.1188 45.7947 11.0248 45.4662 10.8957 45.2903C10.7783 45.1378 10.567 44.9736 10.4379 44.9267Z" fill="#2B2826"/>
<path fill-rule="evenodd" clip-rule="evenodd" d="M66.431 44.5865C66.7363 44.5865 67.0533 44.6804 67.3116 44.8563C67.5464 45.0088 67.7929 45.2552 67.8751 45.4194C67.9456 45.5719 68.016 45.9472 68.016 46.2287C68.016 46.5219 67.9221 46.9442 67.8047 47.1671C67.6873 47.4017 67.4056 47.6716 67.1825 47.7889C66.9711 47.9062 66.6423 47.9882 66.4662 47.9882C66.2901 47.9882 65.9613 47.9178 65.7265 47.8123C65.5035 47.7184 65.2099 47.4722 65.0808 47.261C64.9399 47.0147 64.8459 46.6627 64.8459 46.2873C64.846 45.8651 64.9164 45.5953 65.116 45.3021C65.2686 45.0675 65.527 44.8212 65.6796 44.739C65.8323 44.6569 66.1727 44.5982 66.431 44.5865ZM66.4897 44.8094C66.4075 44.8211 66.1962 44.8915 66.0201 44.9853C65.7852 45.1144 65.6562 45.3138 65.5622 45.654C65.4918 45.9355 65.4683 46.346 65.5035 46.5689C65.5387 46.7918 65.6561 47.0968 65.75 47.2376C65.844 47.39 66.0435 47.5542 66.1962 47.6012C66.3371 47.6598 66.5719 47.6715 66.7245 47.6363C66.8771 47.6011 67.0767 47.4487 67.1707 47.2962C67.2646 47.1555 67.3468 46.8622 67.3468 46.6511C67.3585 46.4516 67.3585 46.0997 67.3468 45.8886C67.335 45.6423 67.2177 45.3959 66.9828 45.1613C66.795 44.9736 66.5602 44.8094 66.4897 44.8094Z" fill="#2B2826"/>
<path d="M41.5751 44.6099C41.8569 44.5982 42.2092 44.6452 42.3736 44.7156C42.5966 44.7977 42.6671 44.915 42.6671 45.1848C42.6671 45.3724 42.6084 45.5366 42.5497 45.5367C42.4793 45.5367 42.3736 45.4311 42.3149 45.3021C42.2444 45.173 42.0565 45.0088 41.8686 44.9384C41.6338 44.8563 41.4577 44.8564 41.2112 44.9737C41.0116 45.0558 40.8003 45.2786 40.7063 45.5015C40.6242 45.7127 40.5537 46.0411 40.5537 46.2405C40.5537 46.4282 40.6359 46.7801 40.7298 47.003C40.8472 47.261 41.0468 47.4721 41.2816 47.5777C41.5399 47.6832 41.7395 47.7067 41.8686 47.6363C42.0095 47.5659 42.0801 47.3901 42.0801 47.1437C42.0801 46.9326 41.986 46.6745 41.8686 46.5572C41.6808 46.3578 41.6926 46.3461 42.9019 46.3578L42.8314 46.9091C42.7962 47.2141 42.7492 47.5308 42.714 47.6129C42.6905 47.6951 42.4439 47.824 42.1622 47.8944C41.8921 47.9648 41.4578 47.9882 41.1995 47.9531C40.8825 47.9061 40.6123 47.7654 40.3423 47.5073C40.0958 47.2493 39.9431 46.956 39.8962 46.6511C39.8492 46.393 39.8844 45.9942 39.9549 45.7713C40.0253 45.5484 40.2249 45.2199 40.401 45.0557C40.5889 44.8797 40.812 44.7156 40.906 44.6804C40.9999 44.6452 41.3051 44.61 41.5751 44.6099Z" fill="#2B2826"/>
<path d="M19.6546 44.5983C19.9129 44.5983 20.1477 44.6452 20.183 44.7156C20.2181 44.7742 20.1595 44.8916 20.0655 44.9737C19.9129 45.091 19.8777 45.3725 19.8894 46.264C19.8894 47.2493 19.9247 47.4487 20.3591 47.8827L19.6193 47.8709C19.091 47.8709 18.9501 47.8475 19.0909 47.7536C19.2671 47.6598 19.3024 47.4721 19.3024 46.5924C19.3024 46.0059 19.2671 45.5601 19.2084 45.5835C19.1614 45.6071 18.9384 46.135 18.7153 46.7566C18.4922 47.3783 18.2691 47.8827 18.2104 47.8827C18.1633 47.8825 17.9872 47.5776 17.8229 47.2024C17.6468 46.8388 17.412 46.2991 17.0833 45.478L17.0716 46.5572C17.0716 47.4252 17.1068 47.6598 17.2477 47.7068C17.3416 47.742 17.4003 47.8006 17.3768 47.8476C17.3532 47.8944 17.0715 47.9179 16.7545 47.8944C16.2849 47.8592 16.2262 47.8357 16.3905 47.7185C16.5431 47.6129 16.6136 47.3079 16.684 46.3226C16.7662 45.1731 16.7545 45.0322 16.5666 44.9384C16.461 44.8797 16.3906 44.786 16.414 44.739C16.4375 44.6921 16.6841 44.6452 16.9424 44.6217C17.3063 44.5983 17.4355 44.6452 17.4942 44.7977C17.5413 44.9152 17.7291 45.3844 17.9051 45.8534C18.0929 46.3225 18.2807 46.7094 18.3278 46.7097C18.3865 46.7097 18.5979 46.2288 19.185 44.5983H19.6546Z" fill="#2B2826"/>
<path fill-rule="evenodd" clip-rule="evenodd" d="M61.3001 44.6686C61.3471 44.6099 61.8285 44.5865 62.3686 44.6099C63.2609 44.6451 63.3666 44.6804 63.6249 44.9737C63.7775 45.1496 63.9066 45.3958 63.9067 45.5249C63.9067 45.6539 63.754 45.912 63.2257 46.4046L63.4605 46.8152C63.5897 47.0498 63.8362 47.3783 64.3176 47.8827H63.848C63.4253 47.8827 63.3549 47.8358 63.0966 47.3783C62.944 47.1086 62.7326 46.7802 62.627 46.6745C62.533 46.5572 62.4038 46.4633 62.3568 46.4633C62.3099 46.4635 62.2629 46.7332 62.2629 47.0498C62.2629 47.3782 62.3216 47.6714 62.3803 47.695C62.4508 47.7302 62.4977 47.8006 62.4977 47.8476C62.4976 47.8944 62.2276 47.9179 61.8872 47.8944C61.4293 47.8592 61.3236 47.824 61.4762 47.7536C61.6524 47.6598 61.6759 47.4604 61.6759 46.346C61.6759 45.1848 61.6524 45.044 61.441 44.915C61.3119 44.8329 61.2532 44.7273 61.3001 44.6686ZM62.5799 44.9267C62.2982 44.9267 62.2864 44.9619 62.2864 45.5718C62.2864 46.1349 62.3099 46.217 62.5212 46.217C62.6504 46.217 62.8617 46.1114 62.9909 45.9824C63.12 45.8534 63.2257 45.6422 63.2257 45.5132C63.2257 45.3842 63.1435 45.1965 63.0496 45.1026C62.9557 45.0088 62.7443 44.9267 62.5799 44.9267Z" fill="#2B2826"/>
<path fill-rule="evenodd" clip-rule="evenodd" d="M13.5374 44.5983C14.0423 44.5983 14.4533 44.6687 14.7234 44.7977C15.0873 44.9854 15.1342 45.0675 15.1577 45.5015C15.1929 45.9472 15.1577 46.0294 14.5119 46.4164L14.7586 46.7684C14.8995 46.956 15.1695 47.2845 15.7213 47.8827H15.2164C14.7585 47.8827 14.7116 47.8475 14.4885 47.4135C14.3594 47.1555 14.148 46.8388 14.0189 46.7097C13.8898 46.5807 13.7254 46.4986 13.6667 46.5337C13.5962 46.5689 13.5492 46.7918 13.5492 47.0264C13.5493 47.2845 13.6432 47.5543 13.7606 47.6833C13.9482 47.8825 13.9367 47.8827 13.3165 47.8944H13.3144C12.7156 47.8944 12.6804 47.8709 12.8448 47.695C12.9856 47.5307 13.0091 47.2257 12.9856 46.2522C12.9621 45.3139 12.9152 44.9737 12.7861 44.8915C12.6922 44.8212 12.6452 44.7273 12.6921 44.6804C12.7273 44.6335 13.1148 44.5983 13.5374 44.5983ZM13.9719 44.9267C13.8192 44.9267 13.6666 44.9853 13.6196 45.044C13.5844 45.1026 13.5727 45.3959 13.5961 45.6891C13.6196 46.2053 13.6314 46.2287 13.9719 46.1935C14.2184 46.1701 14.3594 46.0645 14.465 45.8299C14.5942 45.5719 14.5824 45.4663 14.4415 45.2199C14.3359 45.0323 14.1597 44.9267 13.9719 44.9267Z" fill="#2B2826"/>
<path fill-rule="evenodd" clip-rule="evenodd" d="M22.6016 44.5983C22.719 44.5983 22.8599 44.6921 22.8951 44.7977C22.9304 44.9151 23.1886 45.5836 23.4587 46.2873C23.7287 47.0146 24.0458 47.6363 24.1749 47.7185C24.3862 47.8592 24.3275 47.8827 23.6466 47.8827C22.9891 47.8827 22.9186 47.8593 23.1064 47.7303C23.306 47.6012 23.306 47.566 23.1299 47.2024C22.9538 46.8505 22.8951 46.827 22.449 46.8505C22.0146 46.8739 21.9324 46.9326 21.8267 47.2141C21.7328 47.4956 21.7445 47.5777 21.9441 47.7185C22.1554 47.8709 22.1319 47.8827 21.5566 47.8827C20.9696 47.8827 20.9579 47.871 21.1574 47.6716C21.2631 47.566 21.5919 46.827 21.8619 46.0294C22.2728 44.8681 22.4137 44.5983 22.6016 44.5983ZM22.3784 45.6891C22.2963 45.8768 22.2142 46.1584 22.1789 46.2991C22.132 46.5455 22.1672 46.5572 22.4607 46.4986C22.6368 46.4517 22.7894 46.4164 22.8129 46.4046C22.8364 46.3929 22.7777 46.1584 22.6838 45.8651L22.5077 45.3372L22.3784 45.6891Z" fill="#2B2826"/>
<path d="M28.6012 44.6217C28.9416 44.6217 29.2586 44.6451 29.3057 44.6686C29.3644 44.6921 29.294 44.8211 29.1649 44.9502C28.9653 45.1496 28.9301 45.3373 28.9301 46.3226C28.9301 47.2493 28.977 47.5073 29.1414 47.6833C29.3292 47.8827 29.3057 47.8827 28.6365 47.8827C28.1199 47.871 27.9907 47.8475 28.1316 47.7536C28.3194 47.6598 28.343 47.4604 28.343 46.2991C28.343 45.1966 28.3077 44.9385 28.1669 44.8915C28.073 44.8563 27.9907 44.7859 27.979 44.7272C27.979 44.6569 28.249 44.6217 28.6012 44.6217Z" fill="#2B2826"/>
<path d="M31.5835 44.5983C32.4876 44.5983 32.8046 44.6335 32.8046 44.739C32.8045 44.8214 32.4288 45.443 31.9827 46.1232C31.5366 46.8035 31.1609 47.4135 31.1609 47.4956C31.1609 47.5895 31.3488 47.6481 31.6892 47.6481C32.1119 47.6481 32.2763 47.5777 32.5111 47.3197C32.6755 47.1437 32.8398 47.0264 32.875 47.0616C32.9102 47.0968 32.9103 47.2845 32.8046 47.8827H31.5131C30.797 47.8827 30.2218 47.8592 30.2216 47.8241C30.2216 47.7889 30.6208 47.1672 31.9827 45.1261L31.4309 45.091C30.9378 45.0558 30.8321 45.0909 30.6325 45.3489C30.5034 45.5249 30.3506 45.6188 30.3037 45.5718C30.2567 45.5132 30.2216 45.3607 30.2216 45.2083C30.2216 45.0675 30.2568 44.8681 30.292 44.7742C30.3507 44.6335 30.609 44.5983 31.5835 44.5983Z" fill="#2B2826"/>
<path d="M36.3269 44.5983C36.7144 44.5983 36.8318 44.6569 37.0079 44.915C37.1136 45.091 37.4776 45.5954 38.3816 46.827L38.4168 45.9824C38.4403 45.2082 38.4286 45.1026 38.182 44.9267C37.9237 44.739 37.9237 44.739 38.1468 44.6686C38.276 44.6334 38.5578 44.61 38.7691 44.6334C38.9687 44.6452 39.1448 44.6804 39.1448 44.7156C39.1565 44.7508 39.0743 44.8564 38.9687 44.9502C38.8161 45.0909 38.7808 45.3842 38.7926 46.4986C38.7926 47.7419 38.769 47.8827 38.5811 47.8827C38.4637 47.8826 38.0411 47.4251 37.501 46.7097C37.0199 46.0648 36.5973 45.5371 36.5618 45.5367C36.5265 45.5367 36.5148 45.9942 36.5383 46.5572C36.5617 47.3548 36.6204 47.6247 36.7731 47.7303C36.9374 47.8593 36.8904 47.8827 36.3856 47.8827C35.9395 47.871 35.8455 47.8475 35.9981 47.7536C36.1742 47.6598 36.2095 47.4604 36.2095 46.3813C36.2213 45.3843 36.186 45.0909 36.0334 44.9502C35.9278 44.8563 35.8456 44.7273 35.8573 44.6804C35.8573 44.6335 36.0686 44.5983 36.3269 44.5983Z" fill="#2B2826"/>
<path d="M48.1267 44.6569L48.1501 45.091C48.1736 45.3373 48.1501 45.5367 48.1149 45.5367C48.0797 45.5366 47.9622 45.4311 47.8566 45.3021C47.7392 45.1848 47.5514 45.0675 47.4223 45.044C47.1992 45.0088 47.1873 45.0792 47.1521 46.2991C47.1286 47.4252 47.1521 47.6012 47.3282 47.7303C47.5044 47.8593 47.4222 47.8827 46.7765 47.8827C46.1308 47.8827 46.0485 47.8593 46.2246 47.7303C46.4125 47.6012 46.4242 47.4487 46.3538 46.3108C46.3185 45.607 46.2363 45.0205 46.1776 44.997C46.1189 44.9736 45.9428 45.0792 45.7785 45.2434C45.6142 45.4075 45.4499 45.5365 45.4263 45.5367C45.3911 45.5367 45.3676 45.3255 45.3676 45.0557L45.3793 44.5865L48.1267 44.6569Z" fill="#2B2826"/>
<path d="M51.4963 44.5865C51.8368 44.5865 52.1538 44.6217 52.2008 44.6804C52.2477 44.7273 52.1773 44.8329 52.0482 44.915C51.8369 45.044 51.8134 45.1848 51.8134 46.346C51.8134 47.4602 51.8486 47.6598 52.0247 47.7536C52.1773 47.8357 52.0364 47.8709 51.5198 47.8709C51.0033 47.8709 50.8741 47.8357 51.0267 47.7536C51.1793 47.6715 51.2263 47.4956 51.2263 46.4633H49.9348V47.0264C49.9348 47.3314 50.0052 47.6481 50.0874 47.7303C50.2048 47.8476 50.1109 47.8827 49.5826 47.8827C48.9838 47.8827 48.9485 47.871 49.1129 47.6833C49.2538 47.5308 49.289 47.2258 49.2538 46.2405C49.2303 45.3373 49.1716 44.9736 49.0542 44.8797C48.9603 44.8211 48.9251 44.7273 48.9603 44.6804C49.0073 44.6335 49.289 44.5865 49.6061 44.5865C49.923 44.5865 50.2047 44.6451 50.2283 44.7038C50.2635 44.7741 50.2166 44.8563 50.1109 44.8797C49.9935 44.9266 49.9348 45.1144 49.9348 46.1114H51.2263L51.2381 45.6188C51.2381 45.3138 51.1676 45.0557 51.0502 44.9384C50.9563 44.8446 50.8741 44.7273 50.8741 44.6804C50.8741 44.6335 51.1559 44.5865 51.4963 44.5865Z" fill="#2B2826"/>
<path d="M69.2959 44.5865C69.695 44.5865 69.7655 44.657 71.3623 46.8505L71.3974 45.9824C71.4327 45.2317 71.4092 45.0909 71.1979 44.915C71.0688 44.7977 71.01 44.6803 71.0687 44.6451C71.1392 44.6217 71.3975 44.61 71.6558 44.6217C71.9141 44.6335 72.1254 44.6921 72.1254 44.739C72.1254 44.786 72.0549 44.8563 71.9493 44.8797C71.8084 44.9384 71.7732 45.2082 71.7732 46.4046C71.7732 47.7302 71.7614 47.871 71.5736 47.8827C71.4444 47.8826 70.9982 47.4134 70.4582 46.7097C69.8241 45.8886 69.5307 45.5954 69.5072 45.7361C69.4837 45.8535 69.4837 46.3109 69.5072 46.7566C69.5424 47.214 69.6245 47.6481 69.695 47.7303C69.8124 47.8593 69.7302 47.8827 69.2489 47.8827C68.6853 47.8827 68.6736 47.871 68.9318 47.7068C69.1784 47.5425 69.1901 47.4369 69.1901 46.2873C69.1901 45.1848 69.1667 45.044 68.9553 44.915C68.8262 44.8329 68.7558 44.7273 68.8027 44.6804C68.8497 44.6335 69.0728 44.5865 69.2959 44.5865Z" fill="#2B2826"/>
<path d="M75.7064 44.6451L75.7416 45.091C75.7534 45.3372 75.7417 45.5248 75.6948 45.5249C75.6595 45.5249 75.5421 45.4311 75.4364 45.3021C75.3307 45.173 75.1077 45.0557 74.6497 44.997L74.6145 46.2873C74.5911 47.4252 74.6145 47.6012 74.7907 47.7303C74.9785 47.8593 74.8963 47.8827 74.2975 47.8827C73.6988 47.8827 73.6283 47.8592 73.8044 47.7303C73.9922 47.6012 74.0157 47.4252 73.9805 46.2873C73.9453 45.0792 73.9335 45.0088 73.7105 45.044C73.5813 45.0675 73.3582 45.1848 73.2173 45.3021C73.0647 45.4311 72.9238 45.478 72.8886 45.4076C72.8651 45.3489 72.8651 45.1377 72.9121 44.9384L72.9825 44.5865L75.7064 44.6451Z" fill="#2B2826"/>
<path fill-rule="evenodd" clip-rule="evenodd" d="M83.1268 44.5865C83.6082 44.5865 84.113 44.6334 84.2539 44.6921C84.4066 44.739 84.5944 44.9736 84.6884 45.1848C84.8058 45.4898 84.8176 45.6423 84.7119 45.8534C84.6414 45.9942 84.477 46.1819 84.3596 46.264C84.1483 46.4047 84.1484 46.4164 84.3831 46.8152C84.5123 47.0381 84.7589 47.3783 85.2285 47.8827H84.7589C84.3245 47.8827 84.2657 47.8358 84.0074 47.3783C83.8548 47.0968 83.6434 46.78 83.5378 46.6627C83.4321 46.5572 83.3029 46.4633 83.2559 46.4633C83.209 46.4635 83.1738 46.7215 83.1738 47.0264C83.1621 47.3314 83.2325 47.6481 83.3146 47.7303C83.432 47.8475 83.3264 47.8709 82.7629 47.8709C82.1524 47.8709 82.0819 47.8593 82.2698 47.7303C82.4694 47.6012 82.4928 47.4252 82.4928 46.2873C82.4928 45.2317 82.4576 44.9736 82.305 44.8797C82.1993 44.8211 82.1524 44.7273 82.1875 44.6804C82.2345 44.6335 82.6572 44.5865 83.1268 44.5865ZM83.4791 44.9267C83.1973 44.9267 83.1855 44.9619 83.1855 45.5718C83.1855 46.1583 83.209 46.217 83.4556 46.217C83.5965 46.2287 83.8078 46.1349 83.9135 46.0176C84.0309 45.9003 84.1248 45.6892 84.1248 45.5367C84.1248 45.3959 84.0426 45.1965 83.9487 45.1026C83.8548 45.0088 83.6434 44.9267 83.4791 44.9267Z" fill="#2B2826"/>
<path d="M6.6454 44.5983C7.56121 44.5983 7.80786 44.6335 7.85483 44.7742C7.89004 44.8681 7.91353 45.0792 7.91353 45.2434C7.91353 45.4076 7.89002 45.5366 7.85483 45.5367C7.8196 45.5367 7.7021 45.4193 7.58469 45.2903C7.45554 45.1261 7.23249 45.0322 6.91554 45.0205C6.4459 45.0088 6.44581 45.0088 6.41058 45.478C6.3871 45.7361 6.39891 45.9942 6.42239 46.0645C6.45765 46.1232 6.64547 46.1701 6.84503 46.1467C7.07983 46.1349 7.20905 46.0528 7.20907 45.9472C7.20907 45.8534 7.25603 45.7713 7.32648 45.7713C7.38517 45.7714 7.44389 46.006 7.44389 46.2991C7.44389 46.5924 7.40857 46.827 7.34987 46.827C7.30288 46.827 7.18555 46.7566 7.09166 46.6511C6.99773 46.5455 6.79804 46.4633 6.6454 46.4633C6.41062 46.475 6.38719 46.5338 6.38719 47.0616C6.38719 47.4956 6.43411 47.6715 6.5867 47.7536C6.73933 47.8475 6.61023 47.8709 6.09367 47.8709C5.57707 47.8709 5.44783 47.8475 5.58871 47.7536C5.77656 47.6598 5.80014 47.4604 5.80014 46.3578C5.80014 45.1966 5.77661 45.0558 5.56532 44.915C5.43621 44.8329 5.36572 44.7273 5.41259 44.6804C5.44781 44.6335 6.0114 44.5983 6.6454 44.5983Z" fill="#2B2826"/>
<path d="M34.3543 44.5983C34.6948 44.5865 35.0118 44.6335 35.0588 44.6804C35.1175 44.7273 35.0472 44.8329 34.918 44.915C34.7067 45.0558 34.6832 45.1965 34.6832 46.3578C34.6832 47.4603 34.7066 47.6598 34.8827 47.7536C35.0353 47.8475 34.9062 47.8709 34.3897 47.8709C33.8027 47.8709 33.7204 47.8475 33.8847 47.7303C34.0491 47.6129 34.0844 47.3783 34.0961 46.3578C34.1079 45.3725 34.0726 45.0909 33.92 44.9502C33.8144 44.8563 33.7322 44.7273 33.7439 44.6804C33.7439 44.6335 34.0256 44.5983 34.3543 44.5983Z" fill="#2B2826"/>
<path d="M53.058 44.6921C53.0934 44.6452 53.6335 44.6217 55.3944 44.6451L55.4296 45.091C55.4413 45.3373 55.4296 45.5249 55.3944 45.5249C55.3708 45.5248 55.2065 45.3958 55.0421 45.2316C54.866 45.0557 54.6195 44.9384 54.3964 44.9384C54.0559 44.9384 54.0442 44.9619 54.0442 45.5249C54.0442 46.0996 54.0559 46.1114 54.3964 46.1114C54.596 46.1114 54.7838 46.0645 54.8073 45.9941C54.8426 45.9355 54.9247 45.8768 54.9834 45.8768C55.0539 45.8768 55.1009 46.1349 55.1009 46.4399C55.0891 46.9912 55.0891 46.9912 54.8895 46.7332C54.7721 46.5572 54.5725 46.4633 54.3729 46.4633C54.0677 46.4633 54.0442 46.4986 54.0442 47.6363H54.5256C54.8778 47.6363 55.0775 47.5659 55.2888 47.3431C55.4413 47.1907 55.5821 47.0734 55.6057 47.1085C55.6174 47.1319 55.6175 47.3196 55.5705 47.8709H54.3142C53.4337 47.8709 53.1166 47.8357 53.2575 47.7536C53.4336 47.6598 53.4571 47.4604 53.4571 46.346C53.4571 45.1848 53.4336 45.044 53.2223 44.915C53.0931 44.8329 53.0228 44.739 53.058 44.6921Z" fill="#2B2826"/>
<path d="M59.0928 44.5865C60.032 44.5865 60.2786 44.6217 60.3256 44.7624C60.3609 44.868 60.3843 45.0791 60.3843 45.2316C60.3843 45.3958 60.3609 45.5249 60.3256 45.5249C60.3021 45.5248 60.1729 45.4193 60.0673 45.2903C59.9264 45.1144 59.7033 45.0322 58.9167 44.997L58.858 46.1114H59.2689C59.5038 46.1114 59.7151 46.0645 59.7386 45.9941C59.7738 45.9355 59.856 45.8768 59.9147 45.8768C59.9851 45.8768 60.0321 46.088 60.0321 46.346C60.0321 46.6041 59.9969 46.827 59.9499 46.827C59.9029 46.8269 59.7855 46.7448 59.6799 46.6393C59.5859 46.5454 59.3628 46.4633 59.1867 46.4633C58.8815 46.4633 58.8581 46.4986 58.8698 47.0264C58.8698 47.4135 58.9284 47.6247 59.0693 47.7303C59.2454 47.8475 59.1633 47.8709 58.635 47.8709C58.1185 47.8709 58.0244 47.8475 58.13 47.7303C58.2318 47.6286 58.2788 47.1398 58.2709 46.264C58.2709 45.1965 58.2357 44.9384 58.0948 44.8797C58.0009 44.8562 57.9187 44.7741 57.9187 44.7038C57.9189 44.6334 58.3885 44.5865 59.0928 44.5865Z" fill="#2B2826"/>
<path d="M77.2446 44.5865C77.5967 44.5865 77.8902 44.6451 77.8904 44.7038C77.8904 44.7741 77.8081 44.8445 77.7142 44.8797C77.5733 44.9266 77.5381 45.1965 77.5381 46.2873C77.5381 47.4485 77.5616 47.648 77.7376 47.7536C77.8903 47.8357 77.7612 47.8709 77.2446 47.8709C76.728 47.8709 76.587 47.8357 76.7396 47.7536C76.9158 47.6598 76.9511 47.4487 76.9511 46.3813C76.9511 45.3725 76.9158 45.0791 76.775 44.9384C76.6693 44.8446 76.5871 44.7273 76.587 44.6804C76.587 44.6335 76.8806 44.5865 77.2446 44.5865Z" fill="#2B2826"/>
<path d="M78.7826 44.6804C78.8179 44.6335 79.358 44.6099 81.1192 44.6451L81.1896 45.5835L80.896 45.2669C80.673 45.0323 80.4734 44.9384 79.7689 44.9384V45.5249C79.7689 46.0996 79.7689 46.1114 80.1094 46.1114C80.2972 46.1114 80.532 46.0293 80.6377 45.9354C80.8021 45.783 80.8256 45.8182 80.8256 46.3226C80.8256 46.8504 80.8256 46.8622 80.626 46.6745C80.5086 46.5572 80.262 46.475 80.0858 46.4633C79.7806 46.4633 79.7688 46.4869 79.7923 47.0264C79.8275 47.5777 79.8276 47.5778 80.262 47.6129C80.6142 47.6364 80.7669 47.5778 81.0017 47.3197C81.1661 47.1437 81.3187 47.0146 81.354 47.0498C81.3892 47.085 81.3892 47.2845 81.2953 47.8709H79.9684C78.7592 47.8709 78.6652 47.8592 78.9117 47.695C79.1583 47.5307 79.1819 47.4369 79.1819 46.2873C79.1819 45.1848 79.1583 45.044 78.9471 44.915C78.8179 44.8329 78.7357 44.7273 78.7826 44.6804Z" fill="#2B2826"/>
<path d="M25.4664 44.5983C25.8187 44.5983 26.1122 44.6452 26.1122 44.7156C26.1122 44.7742 26.03 44.8563 25.9361 44.8915C25.7952 44.9384 25.76 45.1965 25.76 47.6481H26.1709C26.4527 47.6481 26.6992 47.5425 27.3097 47.003L27.2276 47.8241L25.9948 47.8476C25.1378 47.871 24.8207 47.8475 24.9615 47.7654C25.1376 47.6598 25.1729 47.4604 25.1729 46.3813C25.1847 45.3843 25.1494 45.0909 24.9968 44.9502C24.8912 44.8563 24.809 44.7273 24.8207 44.6804C24.8207 44.6335 25.1142 44.5983 25.4664 44.5983Z" fill="#2B2826"/>
<path fill-rule="evenodd" clip-rule="evenodd" d="M48.0445 31.3548C50.4162 31.39 50.4867 31.4017 51.0033 31.7067C51.3555 31.9061 51.6138 32.1642 51.7547 32.4692C51.919 32.7976 51.9542 33.0675 51.9073 33.4546C51.872 33.7361 51.7429 34.1115 51.6137 34.2757C51.4963 34.4282 51.1793 34.6746 50.4749 35.0616L51.1207 35.4017C51.4847 35.5894 51.8721 35.8945 52.013 36.0939C52.1421 36.2816 52.283 36.6687 52.33 36.9385C52.377 37.2083 52.3652 37.6423 52.2948 37.912C52.2244 38.1818 52.0013 38.5572 51.743 38.8153C51.4964 39.0733 51.0385 39.3548 50.7098 39.4721C50.2636 39.6364 49.5826 39.7068 45.6024 39.8475V39.5191C45.6024 39.2845 45.6963 39.1554 45.9311 39.0381C46.1072 38.9443 46.2951 38.7918 46.3421 38.6862C46.389 38.5804 46.4243 37.1142 46.4243 35.4369C46.4243 32.5515 46.4125 32.3754 46.1894 32.1642C46.0603 32.0235 45.8842 31.9297 45.7785 31.9296C45.6728 31.9296 45.6141 31.8123 45.6141 31.6246L45.6258 31.3196L48.0445 31.3548ZM48.0797 35.5425V38.7097C48.6433 39.0499 48.8546 39.085 49.2538 39.0146C49.5943 38.9677 49.8996 38.827 50.0992 38.6159C50.2753 38.4399 50.4866 38.088 50.557 37.8299C50.6392 37.5015 50.651 37.2199 50.557 36.8915C50.4983 36.6334 50.334 36.2933 50.2166 36.129C50.0875 35.9648 49.7822 35.7654 49.5357 35.695C49.2891 35.6129 48.8546 35.5425 48.5846 35.5425H48.0797ZM48.7725 32.0235C48.479 32.0235 48.1971 32.0587 48.1384 32.1056C48.0797 32.1409 48.0445 32.7743 48.0562 33.5132L48.0797 34.8387C49.1012 34.8387 49.4417 34.7566 49.7 34.6041C49.923 34.4634 50.0991 34.2405 50.1461 34.0411C50.1813 33.8652 50.24 33.654 50.2635 33.5719C50.287 33.5015 50.2636 33.2199 50.1931 32.9619C50.1109 32.6217 49.97 32.4223 49.6883 32.2581C49.4535 32.1173 49.1012 32.0235 48.7725 32.0235Z" fill="#2B2826"/>
<path d="M65.4448 31.6364C65.4448 31.8123 65.3743 31.9296 65.2687 31.9296C65.1748 31.9296 64.9869 32.0352 64.8578 32.1642C64.6347 32.3871 64.6229 32.5513 64.6229 38.6159L64.9165 38.9091C65.0808 39.0733 65.257 39.2024 65.3274 39.2024C65.3861 39.2024 65.4448 39.3433 65.4448 39.8475L64.482 39.7537C63.9419 39.7068 63.2022 39.6716 62.8265 39.6716C62.3099 39.6716 62.1573 39.6246 62.1573 39.4956C62.1573 39.4018 62.3099 39.2376 62.5095 39.1437C62.6974 39.0499 62.9087 38.8387 62.9792 38.6745C63.0496 38.4986 63.0966 37.1496 63.0966 35.5074C63.0966 33.8184 63.0496 32.5281 62.9792 32.3988C62.9087 32.2698 62.6974 32.0821 62.5095 31.9883C62.2982 31.8827 62.1573 31.7185 62.1573 31.5777C62.1573 31.3549 62.2395 31.3431 65.4448 31.3431V31.6364Z" fill="#2B2826"/>
<path fill-rule="evenodd" clip-rule="evenodd" d="M69.1198 31.3666C71.3623 31.4135 71.6793 31.4486 72.2546 31.6832C72.6069 31.8357 73.0882 32.0938 73.3347 32.2581C73.5695 32.434 73.9218 32.8094 74.1214 33.1027C74.321 33.3959 74.5676 33.9707 74.6733 34.393C74.8024 34.9208 74.8494 35.3901 74.7907 35.9179C74.7437 36.3988 74.6028 36.9384 74.3797 37.3842C74.1919 37.783 73.8279 38.2757 73.5343 38.5337C73.2526 38.78 72.83 39.085 72.6069 39.1906C72.3838 39.3079 71.9259 39.4604 71.6089 39.5308C71.2801 39.6012 70.0355 39.695 66.6189 39.8475V39.5543C66.6307 39.3549 66.7481 39.1788 67.3821 38.78L67.4055 35.6481C67.429 33.7363 67.3938 32.4225 67.3234 32.2815C67.253 32.1525 67.0768 32.0235 66.9124 31.9883C66.6894 31.9414 66.6189 31.8592 66.6306 31.6246L66.6423 31.3196L69.1198 31.3666ZM70.1529 32.0704C69.7303 32.047 69.3076 32.0586 69.2137 32.0938C69.0728 32.1524 69.0493 32.6569 69.0727 35.3783C69.0962 38.0527 69.1197 38.6158 69.2724 38.7683C69.3898 38.8856 69.6833 38.9443 70.1529 38.9443C70.5404 38.9443 71.0335 38.8739 71.2448 38.7918C71.4444 38.698 71.8084 38.4751 72.0315 38.2756C72.2546 38.088 72.5716 37.6423 72.7243 37.2904C72.9004 36.9033 73.0295 36.3402 73.0647 35.8358C73.0999 35.2845 73.0529 34.7801 72.9238 34.3109C72.8064 33.8534 72.5834 33.431 72.2898 33.0909C72.055 32.8093 71.6441 32.4692 71.3858 32.3402C71.104 32.1994 70.6108 32.0939 70.1529 32.0704Z" fill="#2B2826"/>
<path d="M79.0762 31.2493C79.4049 31.1437 79.992 31.1085 80.6612 31.1437C81.2483 31.1672 82.0349 31.2844 83.1268 31.6246L83.1503 32.7038C83.1856 33.6656 83.1621 33.783 82.9742 33.783C82.8568 33.783 82.6572 33.5484 82.4459 33.1613C82.2698 32.8094 81.941 32.4223 81.6944 32.2581C81.3774 32.0469 81.0721 31.953 80.5555 31.9178C80.0037 31.8827 79.7336 31.9296 79.3697 32.1173C79.1114 32.2463 78.7591 32.5044 78.583 32.6921C78.4069 32.8681 78.1487 33.2903 78.0078 33.607C77.8434 33.9824 77.726 34.5337 77.6907 35.132C77.6555 35.824 77.6907 36.2581 77.8433 36.7742C77.9608 37.1613 78.1721 37.6774 78.3247 37.9237C78.4773 38.1583 78.8296 38.4986 79.0997 38.6745C79.4402 38.8856 79.8159 39.0029 80.2503 39.0381C80.6964 39.0733 81.0134 39.0381 81.6592 38.7097V37.7713C81.6592 37.0323 81.6122 36.7977 81.4479 36.6452C81.3422 36.5396 81.1544 36.3989 81.0369 36.352C80.9313 36.2933 80.8373 36.1408 80.8373 36.0117C80.8373 35.7889 80.9195 35.7771 82.4224 35.7771C83.7491 35.7771 84.0074 35.8006 84.0074 35.9531C84.0074 36.0469 83.9135 36.176 83.7961 36.2346C83.6904 36.2816 83.5026 36.4223 83.3852 36.5279C83.2208 36.6804 83.1855 36.915 83.1972 39.1202L82.6337 39.3665C82.3284 39.5073 81.7062 39.6833 81.2483 39.7654C80.7904 39.8358 80.1681 39.8593 79.8393 39.8124C79.5106 39.7772 78.9353 39.6364 78.5478 39.5308C78.0429 39.3666 77.6789 39.1554 77.2328 38.7448C76.8453 38.3929 76.5048 37.9237 76.2935 37.478C76 36.8563 75.9648 36.6452 75.9648 35.5425C75.9648 34.4633 76 34.2287 76.2583 33.6657C76.4227 33.3138 76.7984 32.7624 77.0802 32.4457C77.3737 32.1407 77.8199 31.7654 78.0782 31.6364C78.3365 31.5074 78.7826 31.3314 79.0762 31.2493Z" fill="#2B2826"/>
<path d="M14.7093 31.3319C15.5182 31.3354 15.5452 31.3636 15.5452 31.5894C15.5452 31.7615 15.4395 31.8983 15.2282 32C14.9816 32.0938 14.876 32.2463 14.8173 32.5865C14.7703 32.8211 14.7234 34.0528 14.7234 35.3196C14.7234 37.4779 14.7116 37.6305 14.4415 38.1935C14.2889 38.5102 14.0541 38.8973 13.9132 39.0381C13.784 39.1789 13.4436 39.4252 13.1735 39.566C12.7743 39.7771 12.4808 39.824 11.7294 39.824C10.9545 39.824 10.6844 39.7771 10.1443 39.5191C9.79211 39.3432 9.34595 39.0264 9.14635 38.8035C8.9585 38.5689 8.7354 38.1819 8.6532 37.9355C8.55927 37.6423 8.50059 36.7038 8.50059 35.3196C8.50059 34.1231 8.46534 32.9384 8.41838 32.6803C8.34793 32.3284 8.24222 32.1643 7.94873 32.0118C7.71391 31.8827 7.5613 31.7067 7.5613 31.5659C7.56131 31.3314 7.64359 31.3313 9.26376 31.3313C10.8956 31.3313 10.9662 31.3314 10.9662 31.5659C10.9662 31.695 10.8488 31.8357 10.6727 31.9178C10.5201 31.9765 10.297 32.1525 10.203 32.2932C10.0622 32.5044 10.0269 32.9736 10.0386 34.6744C10.0386 35.824 10.0856 37.0204 10.1443 37.3137C10.203 37.5953 10.3438 37.959 10.4613 38.1115C10.5787 38.264 10.8253 38.5103 11.0014 38.6393C11.2597 38.827 11.5063 38.8973 12.0229 38.8973C12.5395 38.8973 12.7977 38.827 13.0443 38.651C13.2321 38.522 13.4905 38.1701 13.6432 37.8886C13.9015 37.3842 13.9132 37.2668 13.8428 32.2111L13.467 32.0351C13.2087 31.9061 13.0913 31.7654 13.0796 31.5894C13.0796 31.3314 13.1149 31.3313 14.3124 31.3313L14.7093 31.3319Z" fill="#2B2826"/>
<path d="M23.3531 31.3313C24.6327 31.3313 24.7033 31.3431 24.7033 31.5659C24.7033 31.7067 24.5741 31.8475 24.3627 31.9413C24.1631 32.0234 23.9518 32.2111 23.8931 32.3519C23.8109 32.5161 23.764 33.9941 23.764 39.7771L23.3883 39.6951C23.1769 39.6599 22.9655 39.5895 22.9303 39.5543C22.8951 39.5074 22.1437 38.5571 21.2749 37.431C20.4178 36.2932 19.3141 34.8504 17.9522 33.044L17.9286 35.6715C17.9052 37.607 17.9286 38.393 18.0461 38.6393C18.1283 38.827 18.3396 39.0499 18.5157 39.1437C18.7153 39.2376 18.821 39.3783 18.8092 39.5073C18.774 39.6715 18.6683 39.7068 18.3044 39.6951C18.0461 39.6951 17.4825 39.6833 17.0481 39.6716C16.3671 39.6598 16.2497 39.6246 16.2614 39.4487C16.2614 39.3314 16.4258 39.132 16.6371 39.0029C16.8719 38.8622 17.048 38.6393 17.095 38.4164C17.1302 38.2287 17.1654 36.9149 17.1772 35.4956C17.1889 34.0645 17.1655 32.7507 17.1303 32.563C17.0833 32.305 16.9424 32.1407 16.6606 32C16.4023 31.8709 16.2497 31.7067 16.2497 31.5659V31.5543C16.2497 31.3431 16.3319 31.3313 18.6566 31.3313L19.1263 31.9413C19.3846 32.2698 20.3474 33.5366 22.9421 36.9618V34.7331C22.9421 33.5014 22.8951 32.4105 22.8481 32.2932C22.7894 32.1759 22.5781 32.0117 22.3668 31.9178C22.1554 31.8123 22.0028 31.6481 22.0028 31.5308C22.0028 31.3431 22.1555 31.3313 23.3531 31.3313Z" fill="#2B2826"/>
<path fill-rule="evenodd" clip-rule="evenodd" d="M37.9354 31.3431C38.3581 31.3431 38.4637 31.3783 38.5459 31.6012C38.6047 31.7422 39.1918 33.267 39.8493 34.9677C40.5185 36.6803 41.1525 38.2757 41.2699 38.522C41.4108 38.7801 41.6339 39.0264 41.8452 39.1086C42.0918 39.2141 42.1975 39.3314 42.1975 39.5191C42.1975 39.7771 42.1973 39.7772 40.4715 39.7537C38.9218 39.7303 38.7339 39.7067 38.7104 39.5191C38.6869 39.3901 38.8161 39.2376 39.0861 39.1086C39.3796 38.9678 39.5087 38.827 39.497 38.6393C39.497 38.4986 39.3796 38.0879 38.9687 37.0791L36.2095 37.0909L35.9864 37.5836C35.8573 37.8534 35.7399 38.264 35.7164 38.4986C35.6929 38.8504 35.7281 38.9208 36.0686 39.0851C36.3269 39.2024 36.4444 39.3432 36.4444 39.5191C36.4443 39.7654 36.409 39.7771 35.599 39.7654C35.1293 39.7654 34.4953 39.7184 34.19 39.6833C33.8496 39.6363 33.6266 39.5426 33.6265 39.4605C33.6265 39.3783 33.826 39.2258 34.0608 39.1086C34.3661 38.9678 34.5658 38.7332 34.7771 38.3226C34.9415 37.9942 35.282 37.173 35.5403 36.4926C35.7868 35.824 36.2329 34.6393 36.5264 33.8651C36.82 33.0792 37.137 32.1995 37.2427 31.8945C37.4188 31.3432 37.4306 31.3431 37.9354 31.3431ZM37.6654 33.3138C37.6066 33.3139 37.4541 33.6188 37.3249 33.9824C37.184 34.3578 36.9375 35.0147 36.7731 35.4487L36.456 36.2463C38.4049 36.2463 38.6751 36.2111 38.6516 36.0939C38.6282 36.0235 38.4168 35.3549 38.1937 34.6276C37.9589 33.912 37.7241 33.3138 37.6654 33.3138Z" fill="#2B2826"/>
<path d="M87.6942 31.3431C90.3359 31.3431 90.5706 31.3549 90.6176 31.5426C90.6528 31.6599 90.688 32.1173 90.7115 32.563C90.735 33.0321 90.6998 33.3957 90.6294 33.4076C90.559 33.4311 90.4063 33.2551 90.2772 33.0205C90.1481 32.7742 89.8545 32.4575 89.6314 32.305C89.2909 32.0822 89.0678 32.0352 87.4006 32.0469V34.9795H88.2812C89.1265 34.9795 89.1735 34.9677 89.42 34.6276C89.5726 34.4282 89.7605 34.264 89.8309 34.2757C89.9483 34.2757 89.9837 34.6041 89.9837 35.5074C89.9837 36.516 89.9484 36.739 89.8075 36.739C89.7136 36.739 89.5962 36.6452 89.5609 36.5279C89.514 36.4223 89.3731 36.2112 89.2322 36.0587C89.0209 35.8358 88.8682 35.7889 87.4006 35.8006V37.1496C87.4006 37.8886 87.4476 38.6041 87.518 38.7332C87.612 38.9208 87.7528 38.9678 88.3046 38.9678C88.6803 38.9678 89.1735 38.9326 89.3966 38.8856C89.6432 38.8387 89.9719 38.6275 90.2185 38.3695C90.4416 38.1349 90.7116 37.8299 90.8055 37.6891C90.9112 37.5367 91.0404 37.4781 91.1343 37.525C91.2516 37.5954 91.2399 37.8301 90.8643 39.7302L87.8937 39.7537C85.17 39.7889 84.9233 39.7654 84.8528 39.5778C84.8058 39.437 84.8763 39.3079 85.0641 39.1789C85.2167 39.0616 85.4398 38.8974 85.5454 38.7918C85.7333 38.6276 85.7569 38.3226 85.7569 35.566C85.7569 33.7597 85.7099 32.4225 85.6395 32.2815C85.569 32.1525 85.3577 31.9883 85.1698 31.9296C84.935 31.8514 84.8176 31.7341 84.8176 31.5777C84.8176 31.3431 84.8998 31.3431 87.6942 31.3431Z" fill="#2B2826"/>
<path d="M6.63371 31.5894C6.63371 31.7302 6.24627 32.4223 5.77663 33.1378C5.30699 33.8534 4.60251 34.9208 4.22679 35.519C3.83933 36.1055 3.19353 37.1144 2.06638 38.8856L3.55752 38.9208C4.84903 38.9443 5.08389 38.9208 5.34219 38.7332C5.50656 38.6159 5.81181 38.2522 6.02315 37.9355C6.24622 37.6188 6.50453 37.3372 6.6102 37.3137C6.78632 37.2785 6.79806 37.3842 6.72761 38.4281C6.68065 39.0732 6.58674 39.6246 6.5163 39.6833C6.44585 39.7302 4.95475 39.7536 3.1936 39.7419C0.0939516 39.7067 0 39.695 0 39.4721C0 39.3431 1.04493 37.6657 2.32471 35.7536C3.59275 33.8299 4.63773 32.2346 4.63773 32.1994C4.63773 32.1642 3.98023 32.1408 1.70246 32.1408L1.27982 32.5278C1.05675 32.7272 0.821935 33.0792 0.751475 33.2903C0.692769 33.5014 0.563572 33.6657 0.469643 33.6657C0.352232 33.6657 0.293527 33.5484 0.293527 33.2903C0.293529 33.0791 0.328706 32.5513 0.363928 32.1173L0.446138 31.3196H6.63371V31.5894Z" fill="#2B2826"/>
<path fill-rule="evenodd" clip-rule="evenodd" d="M55.6644 31.3431C57.2846 31.3431 58.0361 31.3901 58.4823 31.5191C58.8345 31.6129 59.2807 31.8593 59.5156 32.0704C59.8208 32.3519 59.9734 32.61 60.0556 33.044C60.1495 33.4663 60.1495 33.7713 60.0556 34.1232C59.9852 34.4047 59.7973 34.7684 59.6447 34.9443C59.492 35.1203 59.1515 35.3783 58.4119 35.742L58.7054 36.1173C58.858 36.3285 58.9872 36.5279 58.9872 36.5631C58.9873 36.5984 59.2925 37.1028 59.6564 37.7009C60.1104 38.4125 60.4822 38.8622 60.7718 39.0499C61.0536 39.2141 61.2062 39.3901 61.1827 39.5191C61.1592 39.7067 61.0183 39.7302 60.1026 39.7067C59.0929 39.695 59.0341 39.6833 58.7758 39.3548C58.6349 39.1788 58.2122 38.4399 57.86 37.7361C57.4961 37.0206 57.1086 36.352 57.0029 36.2346C56.8855 36.1056 56.6507 36.0235 55.9345 36.0352V37.3255C55.9345 38.5455 55.9463 38.6276 56.2281 38.9091C56.3924 39.0733 56.6038 39.2024 56.6977 39.2024C56.7916 39.2024 56.8738 39.308 56.8738 39.437C56.8738 39.566 56.8385 39.695 56.7798 39.7184C56.7328 39.7536 55.9696 39.7302 55.0774 39.6951C53.6568 39.6247 53.4689 39.5894 53.4689 39.4018C53.4689 39.2962 53.5511 39.2024 53.645 39.2024C53.7507 39.2023 53.9621 39.0733 54.4082 38.6159V32.5162L54.1147 32.2229C53.9503 32.0587 53.739 31.9297 53.645 31.9296C53.5394 31.9296 53.4689 31.8123 53.4689 31.6364V31.3431H55.6644ZM55.9462 32.0235V35.3079C57.3787 35.2493 57.5078 35.2023 57.8248 34.8974C58.0244 34.6979 58.2357 34.3343 58.2945 34.0762C58.3532 33.8182 58.3649 33.4428 58.3297 33.2551C58.2944 33.0557 58.1888 32.786 58.1066 32.6335C58.0127 32.4927 57.7544 32.2933 57.5313 32.1994C57.3082 32.1056 56.8503 32.0235 56.5333 32.0235H55.9462Z" fill="#2B2826"/>
<path fill-rule="evenodd" clip-rule="evenodd" d="M25.5133 31.4135C25.537 31.3548 26.6758 31.3432 28.0377 31.3666C29.9045 31.4018 30.6677 31.4721 31.1374 31.6129C31.4779 31.7185 32.0297 32.0352 32.3702 32.3167C32.7694 32.6334 33.1099 33.0557 33.333 33.5014C33.6617 34.1466 33.6852 34.2757 33.6852 35.4956C33.6852 36.563 33.65 36.8915 33.4504 37.3255C33.3095 37.6071 33.016 38.0528 32.8046 38.2991C32.5815 38.5454 32.1823 38.8739 31.924 39.0264C31.6657 39.1789 31.1139 39.39 30.6912 39.4956C30.1159 39.6481 29.3997 39.7067 27.6972 39.7067C25.4666 39.7185 25.4664 39.7185 25.4429 39.4605C25.4195 39.308 25.4782 39.2024 25.5604 39.2024C25.6426 39.2024 25.8539 39.0968 26.347 38.7332L26.2883 32.2229L25.8774 32.0235C25.6543 31.9179 25.4664 31.7654 25.4664 31.6716C25.4547 31.5894 25.4781 31.4721 25.5133 31.4135ZM29.2353 32.0821C28.8478 32.0587 28.4252 32.0586 28.296 32.0938C28.0729 32.1524 28.0612 32.2463 28.0847 35.4017C28.1082 37.8416 28.1551 38.6862 28.2608 38.8035C28.343 38.8856 28.6952 38.9443 29.0592 38.9443C29.4114 38.9443 29.8928 38.8857 30.1159 38.8153C30.3389 38.7332 30.7029 38.5572 30.9142 38.4047C31.1138 38.2522 31.4192 37.9003 31.5718 37.6188C31.7362 37.349 31.924 36.8094 31.9944 36.4223C32.1118 35.871 32.1118 35.5308 31.9944 34.8974C31.924 34.4399 31.7361 33.8416 31.5835 33.5484C31.4426 33.2551 31.2196 32.9384 31.1022 32.8211C30.973 32.7155 30.6677 32.5161 30.4094 32.3871C30.1393 32.2346 29.6462 32.1173 29.2353 32.0821Z" fill="#2B2826"/>
<path d="M59.9382 0.997067L55.1244 5.80645C52.4826 8.45748 50.334 10.6276 50.3457 10.6393C50.3575 10.6393 51.0619 10.7683 51.8956 10.9091C52.7292 11.0499 54.1146 11.3196 54.9482 11.5073C55.7819 11.695 57.2378 12.0938 58.177 12.3871C59.1163 12.692 60.49 13.1965 61.2297 13.5249C61.9694 13.8416 62.7443 14.1935 62.9322 14.3109C63.12 14.4164 63.6718 14.7097 64.9986 15.4252L64.9869 16.1055C64.9869 16.4691 64.9751 16.774 64.9517 16.7742C64.9399 16.7742 64.6346 16.6568 64.2824 16.4926C63.9302 16.3401 62.8382 15.9766 61.8755 15.6833C60.901 15.3901 59.2924 14.9912 58.2945 14.8035C57.2965 14.6041 56.0049 14.3577 55.4179 14.2639C54.8308 14.1583 53.4923 14.0058 52.4239 13.912C51.3555 13.8064 49.7704 13.7009 47.3165 13.5719L38.9804 22.0645H46.5534C52.9053 22.0527 54.2321 22.0293 54.7956 21.8768C55.1713 21.783 55.7349 21.5718 56.0636 21.4076C56.3807 21.2434 56.8972 20.8915 57.1907 20.6217C57.5078 20.3167 57.8952 19.7889 58.13 19.2962C58.3531 18.8387 58.5293 18.4047 58.5293 18.3343C58.5293 18.2287 58.7524 18.1818 59.9382 18.1818V25.2199H31.1726V23.7537L36.1038 18.7332C38.8151 15.9774 41.0336 13.7141 41.0351 13.6892C41.0351 13.6774 40.3071 13.7361 39.4148 13.8065C38.5342 13.8886 37.2662 14.0293 36.597 14.1349C35.9395 14.2287 34.3779 14.522 33.1333 14.7801C31.9005 15.0264 30.6677 15.2962 30.4094 15.3666C30.1511 15.437 29.3644 15.6833 28.6482 15.9179C27.932 16.1408 27.1219 16.4574 26.8284 16.6099C26.5349 16.7624 26.2531 16.8445 26.2061 16.7977C26.1591 16.7508 26.1239 16.4692 26.1239 16.1525C26.1239 15.695 26.1709 15.566 26.4409 15.3549C26.6288 15.2259 27.2745 14.8622 27.8851 14.5455C28.4956 14.2405 29.5758 13.7478 30.292 13.4546C31.0082 13.1613 32.4758 12.6569 33.5795 12.3402C34.6831 12.0118 36.3973 11.5777 37.3953 11.39C38.3933 11.1906 39.8727 10.956 40.6828 10.8621C41.493 10.7566 42.6084 10.651 44.2052 10.5572L51.5903 3.1085L44.4635 3.07334C39.4501 3.04988 37.1253 3.085 36.6322 3.17884C36.2447 3.24922 35.6107 3.47216 35.2232 3.65985C34.8358 3.85926 34.2252 4.31676 33.873 4.6804C33.4269 5.13786 33.0981 5.61877 32.8163 6.25218C32.4641 7.02637 32.3702 7.15538 32.1706 7.10846C32.0414 7.07327 31.7596 7.03812 31.1726 7.03812V0H59.9382V0.997067Z" fill="#2B2826"/>
</svg>
