<svg width="109" height="58" viewBox="0 0 109 58" fill="none" xmlns="http://www.w3.org/2000/svg">
<path fill-rule="evenodd" clip-rule="evenodd" d="M12.1944 53.8565C12.5452 53.8425 12.9382 53.9687 13.2469 54.1649C13.5135 54.3472 13.8502 54.7397 14.0046 55.0481C14.187 55.4407 14.2291 55.7491 14.173 56.0996C14.1168 56.366 13.9625 56.7866 13.8082 57.0389C13.6538 57.2913 13.303 57.5997 13.0364 57.7119C12.7698 57.824 12.4048 57.9222 12.2224 57.9222C12.054 57.9081 11.6611 57.7959 11.3525 57.6557C10.9596 57.4875 10.7209 57.2492 10.5385 56.8988C10.4122 56.6043 10.3 56.1557 10.3 55.8893C10.3 55.6229 10.3982 55.1743 10.5105 54.9079C10.6228 54.6416 10.9314 54.2911 11.1699 54.1369C11.4225 53.9826 11.8857 53.8565 12.1944 53.8565ZM12.4751 54.249C12.3067 54.1929 12.0541 54.1929 11.8857 54.2629C11.7313 54.319 11.5067 54.5154 11.3804 54.6976C11.2401 54.8939 11.156 55.3005 11.156 55.7491C11.156 56.1557 11.2402 56.6604 11.3525 56.8707C11.4507 57.095 11.7172 57.3473 11.9417 57.4454C12.3066 57.6137 12.3908 57.6137 12.7416 57.3753C12.9661 57.2351 13.1907 56.9688 13.2328 56.7725C13.2889 56.5762 13.317 56.0996 13.3029 55.721C13.2889 55.2864 13.1766 54.8938 13.0223 54.6835C12.882 54.5013 12.6294 54.3051 12.4751 54.249Z" fill="white"/>
<path fill-rule="evenodd" clip-rule="evenodd" d="M79.3967 53.8424C79.7615 53.8424 80.1404 53.9546 80.4491 54.1649C80.7298 54.3472 81.0244 54.6416 81.1227 54.8378C81.2069 55.0201 81.2911 55.4686 81.2911 55.8051C81.2911 56.1556 81.1789 56.6603 81.0385 56.9267C80.8982 57.2071 80.5615 57.5296 80.2948 57.6698C80.0422 57.81 79.6492 57.9081 79.4388 57.9081C79.2283 57.908 78.8354 57.8239 78.5547 57.6978C78.2881 57.5856 77.9373 57.2913 77.7829 57.0389C77.6145 56.7445 77.5023 56.3238 77.5023 55.8752C77.5023 55.3706 77.5865 55.0481 77.825 54.6976C78.0074 54.4172 78.3163 54.1229 78.4987 54.0247C78.6811 53.9266 79.088 53.8564 79.3967 53.8424ZM79.4669 54.1088C79.3686 54.1228 79.116 54.2069 78.9055 54.3191C78.6249 54.4733 78.4706 54.7117 78.3584 55.1182C78.2742 55.4547 78.2461 55.9454 78.2882 56.2117C78.3303 56.4781 78.4706 56.8426 78.5828 57.0109C78.6951 57.1931 78.9336 57.3893 79.116 57.4454C79.2844 57.5155 79.5651 57.5295 79.7475 57.4875C79.9299 57.4454 80.1684 57.2632 80.2807 57.081C80.393 56.9128 80.4912 56.5623 80.4912 56.3099C80.5052 56.0716 80.5052 55.651 80.4912 55.3986C80.4772 55.1042 80.3369 54.8098 80.0563 54.5294C79.8317 54.3051 79.551 54.1088 79.4669 54.1088Z" fill="white"/>
<path d="M49.6895 53.8704C50.0263 53.8564 50.4474 53.9125 50.6439 53.9967C50.9105 54.0948 50.9947 54.235 50.9947 54.5574C50.9947 54.7817 50.9245 54.9779 50.8544 54.978C50.7702 54.978 50.6439 54.8518 50.5737 54.6976C50.4895 54.5434 50.2649 54.3471 50.0404 54.2629C49.7597 54.1648 49.5493 54.1649 49.2546 54.3051C49.016 54.4033 48.7635 54.6696 48.6512 54.936C48.553 55.1884 48.4688 55.5809 48.4688 55.8192C48.4688 56.0435 48.5671 56.4641 48.6793 56.7305C48.8196 57.0389 49.0581 57.2912 49.3387 57.4174C49.6474 57.5435 49.886 57.5716 50.0404 57.4875C50.2087 57.4034 50.2931 57.1931 50.2931 56.8988C50.2931 56.6464 50.1807 56.338 50.0404 56.1978C49.8158 55.9594 49.83 55.9454 51.2753 55.9594L51.1911 56.6184C51.149 56.9829 51.0928 57.3614 51.0507 57.4595C51.0226 57.5577 50.7279 57.7118 50.3912 57.7959C50.0684 57.88 49.5493 57.9081 49.2406 57.866C48.8617 57.8099 48.5389 57.6417 48.2161 57.3333C47.9215 57.0249 47.739 56.6744 47.6829 56.3099C47.6268 56.0015 47.6689 55.5248 47.7531 55.2584C47.8373 54.9921 48.0758 54.5994 48.2863 54.4031C48.5108 54.1928 48.7775 53.9967 48.8898 53.9546C49.0021 53.9126 49.3668 53.8704 49.6895 53.8704Z" fill="white"/>
<path d="M23.4907 53.8565C23.7994 53.8565 24.0801 53.9125 24.1222 53.9967C24.1642 54.0668 24.0941 54.207 23.9818 54.3051C23.7994 54.4453 23.7573 54.7818 23.7714 55.8473C23.7714 57.0249 23.8135 57.2632 24.3327 57.782L23.4485 57.7679C22.8171 57.7679 22.6487 57.7398 22.817 57.6277C23.0275 57.5155 23.0697 57.2913 23.0697 56.2398C23.0697 55.5388 23.0275 55.006 22.9574 55.034C22.9012 55.0622 22.6347 55.6931 22.3681 56.436C22.1015 57.179 21.8347 57.782 21.7646 57.782C21.7084 57.7817 21.4979 57.4173 21.3015 56.9688C21.091 56.5342 20.8104 55.8893 20.4175 54.9079L20.4035 56.1978C20.4035 57.2352 20.4456 57.5156 20.614 57.5717C20.7262 57.6137 20.7964 57.6839 20.7683 57.7399C20.7401 57.796 20.4034 57.824 20.0246 57.7959C19.4633 57.7539 19.3931 57.7258 19.5895 57.5856C19.7719 57.4595 19.8561 57.095 19.9403 55.9174C20.0386 54.5435 20.0245 54.3751 19.8 54.2629C19.6738 54.1929 19.5896 54.0808 19.6176 54.0247C19.6457 53.9686 19.9404 53.9126 20.2491 53.8845C20.6841 53.8565 20.8385 53.9126 20.9086 54.0948C20.9649 54.2353 21.1894 54.796 21.3998 55.3566C21.6242 55.9172 21.8487 56.3797 21.9049 56.38C21.9751 56.38 22.2278 55.8052 22.9294 53.8565H23.4907Z" fill="white"/>
<path fill-rule="evenodd" clip-rule="evenodd" d="M73.2644 53.9405C73.3205 53.8704 73.896 53.8424 74.5415 53.8704C75.6079 53.9125 75.7343 53.9546 76.043 54.3051C76.2253 54.5154 76.3796 54.8097 76.3797 54.9639C76.3797 55.1181 76.1973 55.4266 75.5658 56.0154L75.8465 56.5061C76.0008 56.7865 76.2955 57.1791 76.8708 57.782H76.3095C75.8044 57.782 75.7202 57.7258 75.4115 57.1791C75.2291 56.8567 74.9765 56.4642 74.8502 56.338C74.7379 56.1978 74.5835 56.0855 74.5273 56.0855C74.4712 56.0857 74.4151 56.4081 74.4151 56.7865C74.4151 57.179 74.4853 57.5294 74.5554 57.5576C74.6396 57.5996 74.6958 57.6839 74.6958 57.7399C74.6955 57.796 74.3728 57.824 73.966 57.7959C73.4188 57.7539 73.2925 57.7118 73.4749 57.6277C73.6854 57.5155 73.7135 57.2772 73.7135 55.9453C73.7135 54.5574 73.6854 54.3892 73.4328 54.235C73.2785 54.1369 73.2083 54.0106 73.2644 53.9405ZM74.794 54.249C74.4572 54.249 74.4432 54.291 74.4432 55.0201C74.4432 55.693 74.4713 55.7911 74.7238 55.7911C74.8782 55.7911 75.1308 55.665 75.2851 55.5107C75.4395 55.3565 75.5658 55.1042 75.5658 54.95C75.5658 54.7957 75.4676 54.5714 75.3553 54.4593C75.2431 54.3471 74.9905 54.249 74.794 54.249Z" fill="white"/>
<path fill-rule="evenodd" clip-rule="evenodd" d="M16.1796 53.8565C16.783 53.8565 17.2742 53.9406 17.597 54.0948C18.0319 54.3191 18.088 54.4173 18.1161 54.936C18.1582 55.4687 18.1161 55.5669 17.3443 56.0295L17.6391 56.4501C17.8075 56.6744 18.1303 57.067 18.7898 57.782H18.1863C17.639 57.782 17.5829 57.7398 17.3163 57.2212C17.162 56.9128 16.9094 56.5342 16.755 56.38C16.6007 56.2258 16.4042 56.1277 16.3341 56.1697C16.2499 56.2118 16.1937 56.4782 16.1937 56.7586C16.1937 57.067 16.306 57.3894 16.4463 57.5436C16.6705 57.7817 16.6568 57.782 15.9155 57.7959H15.9131C15.1974 57.7959 15.1553 57.7679 15.3518 57.5576C15.5201 57.3613 15.5481 56.9967 15.5201 55.8332C15.492 54.7117 15.4359 54.3051 15.2816 54.207C15.1694 54.1229 15.1132 54.0107 15.1692 53.9546C15.2113 53.8985 15.6744 53.8565 16.1796 53.8565ZM16.6989 54.249C16.5164 54.249 16.334 54.3191 16.2779 54.3892C16.2358 54.4593 16.2217 54.8098 16.2498 55.1603C16.2778 55.7771 16.2919 55.8051 16.6989 55.7631C16.9935 55.735 17.162 55.6089 17.2882 55.3285C17.4426 55.0201 17.4285 54.8939 17.2602 54.5995C17.1339 54.3752 16.9234 54.249 16.6989 54.249Z" fill="white"/>
<path fill-rule="evenodd" clip-rule="evenodd" d="M27.0128 53.8565C27.1532 53.8565 27.3216 53.9686 27.3637 54.0948C27.4058 54.2352 27.7145 55.0342 28.0372 55.8752C28.36 56.7444 28.7389 57.4875 28.8933 57.5856C29.1458 57.7538 29.0756 57.782 28.2618 57.782C27.476 57.782 27.3918 57.7539 27.6162 57.5997C27.8548 57.4455 27.8548 57.4034 27.6443 56.9688C27.4338 56.5483 27.3637 56.5202 26.8304 56.5483C26.3113 56.5763 26.213 56.6464 26.0867 56.9828C25.9745 57.3193 25.9885 57.4174 26.2271 57.5856C26.4796 57.7679 26.4515 57.782 25.7639 57.782C25.0623 57.782 25.0483 57.768 25.2869 57.5296C25.4131 57.4035 25.8061 56.5202 26.1288 55.5669C26.62 54.1789 26.7883 53.8565 27.0128 53.8565ZM26.7462 55.1603C26.6479 55.3846 26.5498 55.7211 26.5077 55.8893C26.4516 56.1837 26.4937 56.1978 26.8444 56.1277C27.0549 56.0716 27.2373 56.0294 27.2654 56.0154C27.2935 56.0014 27.2234 55.721 27.1111 55.3706L26.9006 54.7397L26.7462 55.1603Z" fill="white"/>
<path d="M34.1835 53.8845C34.5903 53.8845 34.9691 53.9125 35.0254 53.9405C35.0956 53.9686 35.0115 54.1228 34.8572 54.2771C34.6186 54.5154 34.5765 54.7397 34.5765 55.9174C34.5765 57.0249 34.6326 57.3333 34.8291 57.5436C35.0536 57.7819 35.0255 57.782 34.2257 57.782C33.6083 57.7679 33.4538 57.7398 33.6222 57.6277C33.8467 57.5155 33.8749 57.2772 33.8749 55.8893C33.8749 54.5716 33.8327 54.2631 33.6644 54.207C33.5521 54.1649 33.4538 54.0807 33.4398 54.0106C33.4398 53.9265 33.7626 53.8845 34.1835 53.8845Z" fill="white"/>
<path d="M37.7478 53.8565C38.8283 53.8565 39.2073 53.8985 39.2073 54.0247C39.2071 54.1231 38.7581 54.866 38.225 55.679C37.6917 56.4922 37.2427 57.2212 37.2427 57.3193C37.2428 57.4315 37.4673 57.5016 37.8742 57.5016C38.3793 57.5016 38.5758 57.4175 38.8565 57.109C39.0529 56.8988 39.2493 56.7585 39.2914 56.8006C39.3335 56.8427 39.3335 57.067 39.2073 57.782H37.6637C36.8079 57.782 36.1204 57.7539 36.1201 57.7119C36.1201 57.6698 36.5972 56.9268 38.225 54.4873L37.5654 54.4453C36.9761 54.4033 36.8498 54.4453 36.6112 54.7536C36.4569 54.9639 36.2743 55.0761 36.2182 55.0201C36.1621 54.95 36.1201 54.7677 36.1201 54.5855C36.1201 54.4173 36.1621 54.1789 36.2042 54.0668C36.2744 53.8985 36.5831 53.8565 37.7478 53.8565Z" fill="white"/>
<path d="M43.4171 53.8565C43.8801 53.8565 44.0205 53.9266 44.2309 54.235C44.3573 54.4454 44.7924 55.0483 45.8728 56.5202L45.9148 55.5107C45.9429 54.5855 45.9289 54.4593 45.6342 54.249C45.3255 54.0247 45.3255 54.0246 45.5921 53.9405C45.7465 53.8985 46.0833 53.8705 46.3358 53.8985C46.5744 53.9125 46.7849 53.9546 46.7849 53.9967C46.7989 54.0387 46.7007 54.1649 46.5744 54.2771C46.392 54.4453 46.3499 54.7958 46.3639 56.1277C46.3639 57.6137 46.3357 57.782 46.1112 57.782C45.9708 57.7818 45.4657 57.2351 44.8203 56.38C44.2452 55.6093 43.7402 54.9786 43.6977 54.978C43.6556 54.978 43.6416 55.5248 43.6696 56.1978C43.6977 57.1511 43.7679 57.4736 43.9503 57.5997C44.1467 57.7539 44.0905 57.782 43.4872 57.782C42.954 57.7679 42.8416 57.7398 43.024 57.6277C43.2345 57.5155 43.2767 57.2772 43.2767 55.9875C43.2908 54.7959 43.2486 54.4453 43.0662 54.2771C42.94 54.1649 42.8418 54.0107 42.8558 53.9546C42.8558 53.8985 43.1083 53.8565 43.4171 53.8565Z" fill="white"/>
<path d="M57.5199 53.9266L57.5478 54.4453C57.5759 54.7397 57.5479 54.978 57.5058 54.978C57.4636 54.978 57.3233 54.8518 57.197 54.6976C57.0567 54.5575 56.8323 54.4172 56.6779 54.3892C56.4113 54.3471 56.3972 54.4313 56.3551 55.8893C56.327 57.2352 56.3551 57.4455 56.5655 57.5997C56.776 57.7539 56.6779 57.782 55.9061 57.782C55.1343 57.782 55.0361 57.7539 55.2466 57.5997C55.4711 57.4455 55.4851 57.2632 55.4009 55.9033C55.3588 55.0621 55.2605 54.3611 55.1904 54.333C55.1202 54.3051 54.9098 54.4313 54.7133 54.6275C54.517 54.8237 54.3206 54.9778 54.2924 54.978C54.2503 54.978 54.2222 54.7256 54.2222 54.4031L54.2362 53.8424L57.5199 53.9266Z" fill="white"/>
<path d="M61.5471 53.8424C61.9541 53.8424 62.333 53.8845 62.3891 53.9546C62.4452 54.0107 62.3611 54.1369 62.2067 54.235C61.9542 54.3892 61.926 54.5575 61.926 55.9453C61.926 57.277 61.9682 57.5155 62.1786 57.6277C62.361 57.7258 62.1927 57.7679 61.5752 57.7679C60.9578 57.7679 60.8034 57.7258 60.9858 57.6277C61.1683 57.5295 61.2244 57.3192 61.2244 56.0855H59.6808V56.7586C59.6808 57.1231 59.765 57.5016 59.8632 57.5997C60.0035 57.7399 59.8913 57.782 59.2598 57.782C58.5442 57.782 58.5021 57.7679 58.6985 57.5436C58.8669 57.3613 58.909 56.9968 58.867 55.8192C58.8389 54.7397 58.7687 54.305 58.6284 54.1928C58.5162 54.1228 58.4741 54.0107 58.5161 53.9546C58.5723 53.8985 58.909 53.8424 59.2879 53.8424C59.6667 53.8424 60.0034 53.9125 60.0316 53.9826C60.0737 54.0667 60.0176 54.1648 59.8913 54.1928C59.751 54.2489 59.6808 54.4733 59.6808 55.6649H61.2244L61.2385 55.0762C61.2385 54.7117 61.1542 54.4031 61.0139 54.2629C60.9017 54.1508 60.8035 54.0107 60.8034 53.9546C60.8034 53.8985 61.1402 53.8424 61.5471 53.8424Z" fill="white"/>
<path d="M82.8207 53.8424C83.2978 53.8424 83.382 53.9266 85.2904 56.5483L85.3325 55.5107C85.3746 54.6136 85.3466 54.4453 85.094 54.235C84.9397 54.0948 84.8694 53.9545 84.9396 53.9125C85.0238 53.8844 85.3325 53.8705 85.6412 53.8845C85.9499 53.8985 86.2025 53.9686 86.2025 54.0247C86.2025 54.0808 86.1183 54.1648 85.992 54.1928C85.8236 54.2629 85.7815 54.5855 85.7815 56.0154C85.7815 57.5996 85.7675 57.7679 85.543 57.782C85.3885 57.7818 84.8553 57.2211 84.2099 56.38C83.4521 55.3986 83.1013 55.0482 83.0733 55.2164C83.0452 55.3567 83.0452 55.9033 83.0733 56.436C83.1154 56.9828 83.2135 57.5016 83.2977 57.5997C83.4381 57.7539 83.3399 57.782 82.7645 57.782C82.091 57.782 82.077 57.7679 82.3856 57.5717C82.6803 57.3754 82.6944 57.2491 82.6944 55.8752C82.6944 54.5574 82.6663 54.3892 82.4137 54.235C82.2594 54.1369 82.1752 54.0107 82.2313 53.9546C82.2874 53.8985 82.5541 53.8424 82.8207 53.8424Z" fill="white"/>
<path d="M90.4825 53.9125L90.5246 54.4453C90.5386 54.7397 90.5246 54.9639 90.4685 54.9639C90.4264 54.9639 90.286 54.8518 90.1598 54.6976C90.0335 54.5434 89.7668 54.4031 89.2195 54.333L89.1775 55.8752C89.1494 57.2351 89.1775 57.4455 89.388 57.5997C89.6124 57.7539 89.5142 57.782 88.7986 57.782C88.083 57.782 87.9988 57.7539 88.2092 57.5997C88.4337 57.4455 88.4618 57.2351 88.4197 55.8752C88.3776 54.4312 88.3635 54.3471 88.0969 54.3892C87.9426 54.4172 87.6759 54.5574 87.5075 54.6976C87.3251 54.8518 87.1567 54.9078 87.1146 54.8237C87.0866 54.7536 87.0866 54.5012 87.1427 54.2629L87.2269 53.8424L90.4825 53.9125Z" fill="white"/>
<path fill-rule="evenodd" clip-rule="evenodd" d="M99.3511 53.8424C99.9264 53.8424 100.53 53.8985 100.698 53.9686C100.881 54.0247 101.105 54.3051 101.217 54.5574C101.358 54.9219 101.372 55.1042 101.246 55.3566C101.161 55.5248 100.965 55.7491 100.825 55.8473C100.572 56.0155 100.572 56.0295 100.853 56.5061C101.007 56.7725 101.302 57.1791 101.863 57.782H101.302C100.783 57.782 100.712 57.7259 100.404 57.1791C100.221 56.8427 99.9686 56.4641 99.8423 56.3239C99.716 56.1977 99.5616 56.0855 99.5054 56.0855C99.4493 56.0857 99.4073 56.3942 99.4073 56.7586C99.3933 57.1231 99.4774 57.5016 99.5756 57.5997C99.7159 57.7399 99.5897 57.7679 98.9162 57.7679C98.1865 57.7679 98.1023 57.7539 98.3268 57.5997C98.5653 57.4455 98.5933 57.2351 98.5933 55.8752C98.5933 54.6135 98.5513 54.305 98.3689 54.1928C98.2426 54.1228 98.1865 54.0107 98.2285 53.9546C98.2847 53.8985 98.7898 53.8424 99.3511 53.8424ZM99.7721 54.249C99.4353 54.249 99.4213 54.291 99.4213 55.0201C99.4213 55.721 99.4494 55.7911 99.744 55.7911C99.9124 55.8052 100.165 55.693 100.291 55.5528C100.432 55.4126 100.544 55.1603 100.544 54.978C100.544 54.8098 100.446 54.5714 100.333 54.4593C100.221 54.3471 99.9686 54.249 99.7721 54.249Z" fill="white"/>
<path d="M7.94242 53.8565C9.03697 53.8565 9.33177 53.8985 9.3879 54.0668C9.42999 54.1789 9.45806 54.4313 9.45806 54.6275C9.45806 54.8237 9.42996 54.9779 9.3879 54.978C9.3458 54.978 9.20536 54.8378 9.06503 54.6835C8.91068 54.4873 8.6441 54.3751 8.26528 54.3611C7.70398 54.3471 7.70387 54.3471 7.66177 54.9079C7.63371 55.2164 7.64782 55.5248 7.67589 55.6089C7.71803 55.679 7.9425 55.7351 8.18101 55.7071C8.46164 55.6931 8.61608 55.5949 8.6161 55.4687C8.6161 55.3566 8.67223 55.2584 8.75643 55.2584C8.82657 55.2586 8.89675 55.5389 8.89675 55.8893C8.89675 56.2398 8.85454 56.5202 8.78438 56.5202C8.72822 56.5201 8.58799 56.436 8.47577 56.3099C8.36351 56.1837 8.12485 56.0855 7.94242 56.0855C7.66182 56.0995 7.63381 56.1697 7.63381 56.8006C7.63382 57.3192 7.68989 57.5295 7.87226 57.6277C8.05468 57.7398 7.90039 57.7679 7.283 57.7679C6.66558 57.7679 6.51111 57.7398 6.67949 57.6277C6.90401 57.5155 6.93218 57.2772 6.93218 55.9594C6.93218 54.5716 6.90406 54.4032 6.65153 54.235C6.49722 54.1369 6.41297 54.0107 6.469 53.9546C6.51109 53.8985 7.18468 53.8565 7.94242 53.8565Z" fill="white"/>
<path d="M41.0595 53.8565C41.4664 53.8424 41.8453 53.8985 41.9014 53.9546C41.9716 54.0107 41.8875 54.1369 41.7331 54.235C41.4806 54.4033 41.4525 54.5715 41.4525 55.9594C41.4525 57.2771 41.4805 57.5155 41.6909 57.6277C41.8734 57.7398 41.7191 57.7679 41.1017 57.7679C40.4001 57.7679 40.3018 57.7399 40.4982 57.5997C40.6946 57.4595 40.7368 57.1791 40.7509 55.9594C40.7649 54.7818 40.7228 54.4453 40.5404 54.2771C40.4141 54.1649 40.3159 54.0107 40.3299 53.9546C40.3299 53.8985 40.6666 53.8565 41.0595 53.8565Z" fill="white"/>
<path d="M63.4136 53.9686C63.4559 53.9125 64.1015 53.8844 66.206 53.9125L66.2481 54.4453C66.2621 54.7397 66.2481 54.9639 66.206 54.9639C66.1778 54.9638 65.9814 54.8097 65.785 54.6134C65.5745 54.4032 65.2798 54.2629 65.0132 54.2629C64.6063 54.2629 64.5922 54.2911 64.5922 54.9639C64.5922 55.6509 64.6063 55.6649 65.0132 55.6649C65.2518 55.6649 65.4763 55.6088 65.5044 55.5247C65.5465 55.4546 65.6447 55.3845 65.7149 55.3845C65.7991 55.3845 65.8552 55.6931 65.8552 56.0576C65.8412 56.7164 65.8411 56.7165 65.6026 56.4081C65.4623 56.1978 65.2237 56.0855 64.9851 56.0855C64.6203 56.0855 64.5922 56.1277 64.5922 57.4875H65.1677C65.5886 57.4875 65.8272 57.4033 66.0798 57.137C66.2621 56.9548 66.4304 56.8147 66.4586 56.8566C66.4726 56.8846 66.4726 57.109 66.4165 57.7679H64.915C63.8626 57.7679 63.4837 57.7258 63.652 57.6277C63.8625 57.5155 63.8906 57.2772 63.8906 55.9453C63.8906 54.5574 63.8625 54.3892 63.61 54.235C63.4556 54.1369 63.3715 54.0247 63.4136 53.9686Z" fill="white"/>
<path d="M70.6263 53.8424C71.7488 53.8424 72.0435 53.8845 72.0997 54.0527C72.1418 54.1788 72.1699 54.4312 72.1699 54.6134C72.1699 54.8097 72.1418 54.9639 72.0997 54.9639C72.0716 54.9639 71.9172 54.8377 71.791 54.6835C71.6226 54.4733 71.3559 54.3751 70.4158 54.333L70.3456 55.6649H70.8368C71.1174 55.6649 71.37 55.6088 71.3981 55.5247C71.4402 55.4546 71.5384 55.3845 71.6086 55.3845C71.6928 55.3845 71.7489 55.6369 71.7489 55.9453C71.7489 56.2537 71.7068 56.5202 71.6506 56.5202C71.5945 56.5201 71.4542 56.4219 71.3279 56.2958C71.2156 56.1837 70.949 56.0855 70.7385 56.0855C70.3737 56.0855 70.3457 56.1277 70.3597 56.7586C70.3597 57.2212 70.4298 57.4736 70.5982 57.5997C70.8087 57.7399 70.7105 57.7679 70.0791 57.7679C69.4617 57.7679 69.3494 57.7399 69.4756 57.5997C69.5972 57.4782 69.6534 56.894 69.644 55.8473C69.644 54.5715 69.6019 54.2629 69.4335 54.1928C69.3213 54.1648 69.223 54.0667 69.223 53.9826C69.2233 53.8985 69.7845 53.8424 70.6263 53.8424Z" fill="white"/>
<path d="M92.3208 53.8424C92.7417 53.8424 93.0925 53.9125 93.0926 53.9826C93.0926 54.0667 92.9944 54.1508 92.8821 54.1928C92.7138 54.2489 92.6717 54.5714 92.6717 55.8752C92.6717 57.263 92.6997 57.5015 92.9101 57.6277C93.0925 57.7258 92.9382 57.7679 92.3208 57.7679C91.7034 57.7679 91.5349 57.7258 91.7173 57.6277C91.9278 57.5155 91.97 57.2632 91.97 55.9875C91.97 54.7818 91.9279 54.4312 91.7595 54.2629C91.6333 54.1508 91.535 54.0107 91.5349 53.9546C91.5349 53.8985 91.8858 53.8424 92.3208 53.8424Z" fill="white"/>
<path d="M94.1591 53.9546C94.2012 53.8985 94.8467 53.8704 96.9516 53.9125L97.0358 55.034L96.6849 54.6556C96.4183 54.3752 96.1798 54.263 95.3379 54.2629V54.9639C95.3379 55.6509 95.3378 55.6649 95.7447 55.6649C95.9692 55.6649 96.2499 55.5668 96.3762 55.4546C96.5726 55.2724 96.6008 55.3145 96.6008 55.9174C96.6008 56.5482 96.6007 56.5622 96.3622 56.338C96.2219 56.1978 95.9271 56.0995 95.7166 56.0855C95.3518 56.0855 95.3377 56.1137 95.3658 56.7586C95.4079 57.4174 95.408 57.4175 95.9271 57.4595C96.3481 57.4876 96.5306 57.4175 96.8113 57.109C97.0077 56.8988 97.1902 56.7444 97.2323 56.7865C97.2744 56.8285 97.2744 57.0669 97.1621 57.7679H95.5763C94.131 57.7679 94.0187 57.7538 94.3134 57.5576C94.608 57.3613 94.6362 57.2491 94.6362 55.8752C94.6362 54.5575 94.6081 54.3892 94.3556 54.235C94.2012 54.1369 94.103 54.0107 94.1591 53.9546Z" fill="white"/>
<path d="M30.4369 53.8565C30.8578 53.8565 31.2087 53.9125 31.2087 53.9967C31.2086 54.0667 31.1104 54.1649 30.9982 54.207C30.8298 54.263 30.7877 54.5715 30.7877 57.5016H31.2788C31.6156 57.5016 31.9103 57.3753 32.6399 56.7305L32.5418 57.7119L31.0683 57.7399C30.0441 57.768 29.6651 57.7399 29.8334 57.6418C30.0438 57.5156 30.086 57.2772 30.0861 55.9875C30.1001 54.7959 30.0579 54.4453 29.8756 54.2771C29.7493 54.1649 29.6511 54.0107 29.6651 53.9546C29.6651 53.8985 30.0159 53.8565 30.4369 53.8565Z" fill="white"/>
<path fill-rule="evenodd" clip-rule="evenodd" d="M57.4216 38.0282C60.2562 38.0703 60.3404 38.0843 60.9579 38.4488C61.3788 38.6871 61.6875 38.9956 61.8559 39.3601C62.0523 39.7526 62.0944 40.0751 62.0383 40.5378C61.9962 40.8743 61.8418 41.3229 61.6875 41.5192C61.5471 41.7014 61.1683 41.9959 60.3264 42.4585L61.0982 42.865C61.5332 43.0893 61.9962 43.4539 62.1646 43.6922C62.319 43.9165 62.4874 44.3792 62.5435 44.7017C62.5997 45.0241 62.5857 45.5428 62.5015 45.8653C62.4173 46.1877 62.1506 46.6364 61.8419 46.9448C61.5472 47.2532 61 47.5896 60.6071 47.7298C60.0738 47.9261 59.2599 48.0103 54.5029 48.1785V47.786C54.5029 47.5056 54.6151 47.3513 54.8957 47.2111C55.1062 47.0989 55.3308 46.9167 55.3869 46.7905C55.443 46.6641 55.4851 44.9117 55.4851 42.907C55.4851 39.4584 55.4711 39.248 55.2045 38.9956C55.0502 38.8274 54.8396 38.7153 54.7133 38.7152C54.5871 38.7152 54.5168 38.575 54.5168 38.3506L54.5308 37.9862L57.4216 38.0282ZM57.4637 43.0333V46.8186C58.1373 47.2251 58.3898 47.2671 58.867 47.183C59.2739 47.1269 59.6388 46.9588 59.8773 46.7064C60.0878 46.4961 60.3403 46.0755 60.4245 45.7671C60.5228 45.3745 60.5368 45.0381 60.4245 44.6455C60.3544 44.3371 60.158 43.9305 60.0177 43.7342C59.8633 43.538 59.4985 43.2996 59.2038 43.2155C58.9091 43.1174 58.3898 43.0333 58.0671 43.0333H57.4637ZM58.2917 38.8274C57.9409 38.8274 57.604 38.8694 57.5339 38.9255C57.4637 38.9677 57.4216 39.7247 57.4356 40.6079L57.4637 42.1921C58.6845 42.1921 59.0914 42.0939 59.4002 41.9117C59.6668 41.7435 59.8772 41.4771 59.9334 41.2388C59.9755 41.0285 60.0456 40.7762 60.0737 40.678C60.1018 40.5939 60.0738 40.2574 59.9896 39.9489C59.8913 39.5424 59.723 39.304 59.3862 39.1078C59.1055 38.9395 58.6846 38.8274 58.2917 38.8274Z" fill="white"/>
<path d="M78.218 38.3647C78.218 38.575 78.1338 38.7152 78.0075 38.7152C77.8953 38.7152 77.6708 38.8414 77.5164 38.9956C77.2498 39.262 77.2357 39.4583 77.2357 46.7064L77.5866 47.0569C77.783 47.2532 77.9935 47.4074 78.0777 47.4074C78.1479 47.4075 78.218 47.5758 78.218 48.1785L77.0673 48.0664C76.4218 48.0103 75.5377 47.9682 75.0886 47.9682C74.4713 47.9682 74.2889 47.9121 74.2889 47.7579C74.2889 47.6458 74.4713 47.4495 74.7099 47.3373C74.9344 47.2252 75.187 46.9728 75.2712 46.7765C75.3554 46.5662 75.4115 44.954 75.4115 42.9912C75.4115 40.9726 75.3554 39.4305 75.2712 39.276C75.187 39.1218 74.9344 38.8975 74.7099 38.7853C74.4573 38.6592 74.2889 38.4629 74.2889 38.2946C74.2889 38.0283 74.3871 38.0143 78.218 38.0143V38.3647Z" fill="white"/>
<path fill-rule="evenodd" clip-rule="evenodd" d="M82.6102 38.0423C85.2904 38.0984 85.6694 38.1403 86.357 38.4207C86.7779 38.603 87.3532 38.9115 87.6479 39.1078C87.9285 39.3181 88.3495 39.7667 88.5881 40.1172C88.8266 40.4677 89.1213 41.1547 89.2476 41.6594C89.402 42.2902 89.4581 42.851 89.388 43.4819C89.3318 44.0567 89.1634 44.7016 88.8968 45.2344C88.6723 45.711 88.2373 46.2998 87.8864 46.6083C87.5497 46.9027 87.0446 47.2671 86.7779 47.3933C86.5113 47.5335 85.9641 47.7158 85.5852 47.7999C85.1923 47.8841 83.7048 47.9962 79.6213 48.1785V47.828C79.6353 47.5897 79.7757 47.3793 80.5334 46.9026L80.5614 43.1595C80.5894 40.8745 80.5474 39.3043 80.4632 39.1358C80.3791 38.9816 80.1686 38.8274 79.9721 38.7853C79.7055 38.7293 79.6212 38.631 79.6353 38.3506L79.6492 37.9862L82.6102 38.0423ZM83.8451 38.8835C83.3399 38.8555 82.8347 38.8694 82.7225 38.9114C82.5541 38.9815 82.526 39.5844 82.554 42.8369C82.5821 46.0334 82.6102 46.7064 82.7926 46.8887C82.9329 47.0289 83.2838 47.099 83.8451 47.099C84.3081 47.099 84.8975 47.0149 85.1501 46.9167C85.3886 46.8046 85.8237 46.5381 86.0903 46.2998C86.3569 46.0755 86.7358 45.5428 86.9183 45.1222C87.1288 44.6596 87.283 43.9866 87.3251 43.3838C87.3672 42.7248 87.3111 42.122 87.1567 41.5612C87.0164 41.0144 86.7498 40.5097 86.399 40.1031C86.1184 39.7666 85.6272 39.3601 85.3185 39.2059C84.9817 39.0377 84.3923 38.9115 83.8451 38.8835Z" fill="white"/>
<path d="M94.5099 37.9021C94.9028 37.7759 95.6044 37.7338 96.4043 37.7759C97.1059 37.8039 98.0461 37.9441 99.3511 38.3506L99.3792 39.6405C99.4213 40.79 99.3932 40.9303 99.1687 40.9303C99.0284 40.9303 98.7899 40.6499 98.5373 40.1873C98.3268 39.7667 97.9338 39.304 97.6391 39.1078C97.2603 38.8554 96.8954 38.7432 96.2779 38.7011C95.6184 38.6591 95.2957 38.7152 94.8607 38.9395C94.552 39.0937 94.131 39.4022 93.9205 39.6265C93.71 39.8368 93.4014 40.3415 93.233 40.72C93.0365 41.1686 92.8961 41.8276 92.854 42.5426C92.812 43.3697 92.854 43.8885 93.0365 44.5053C93.1768 44.9679 93.4293 45.5848 93.6117 45.8792C93.7942 46.1596 94.2152 46.5662 94.538 46.7765C94.9449 47.0289 95.3939 47.169 95.9131 47.2111C96.4464 47.2531 96.8253 47.2111 97.5971 46.8186V45.697C97.5971 44.8138 97.5409 44.5334 97.3445 44.3512C97.2182 44.225 96.9937 44.0568 96.8534 44.0007C96.7271 43.9306 96.6148 43.7483 96.6148 43.594C96.6148 43.3277 96.713 43.3137 98.5092 43.3137C100.095 43.3137 100.404 43.3417 100.404 43.5239C100.404 43.6361 100.291 43.7904 100.151 43.8605C100.025 43.9166 99.8002 44.0848 99.6599 44.211C99.4634 44.3932 99.4212 44.6736 99.4353 47.3093L98.7617 47.6036C98.3969 47.7719 97.6532 47.9822 97.1059 48.0803C96.5586 48.1645 95.8149 48.1925 95.422 48.1365C95.0291 48.0944 94.3415 47.9261 93.8784 47.7999C93.275 47.6037 92.84 47.3513 92.3067 46.8606C91.8437 46.44 91.4367 45.8792 91.1841 45.3465C90.8333 44.6035 90.7912 44.3511 90.7912 43.0333C90.7912 41.7435 90.8333 41.4631 91.142 40.7901C91.3385 40.3695 91.7875 39.7105 92.1243 39.332C92.4751 38.9675 93.0084 38.519 93.3171 38.3647C93.6258 38.2105 94.1591 38.0003 94.5099 37.9021Z" fill="white"/>
<path d="M17.5801 38.0008C18.547 38.0051 18.5793 38.0388 18.5793 38.3086C18.5793 38.5142 18.4529 38.6778 18.2004 38.7993C17.9057 38.9114 17.7794 39.0937 17.7092 39.5003C17.6531 39.7807 17.597 41.2527 17.597 42.7668C17.597 45.3464 17.5829 45.5287 17.2602 46.2016C17.0777 46.5802 16.7971 47.0428 16.6287 47.2111C16.4743 47.3793 16.0674 47.6737 15.7447 47.842C15.2676 48.0943 14.9167 48.1504 14.0187 48.1504C13.0925 48.1504 12.7697 48.0944 12.1243 47.786C11.7033 47.5757 11.17 47.1971 10.9315 46.9307C10.707 46.6503 10.4403 46.1877 10.3421 45.8933C10.2298 45.5428 10.1597 44.4212 10.1597 42.7668C10.1597 41.3368 10.1176 39.9208 10.0614 39.6124C9.97724 39.1919 9.8509 38.9956 9.50013 38.8134C9.21948 38.6592 9.03708 38.4488 9.03708 38.2805C9.03709 38.0002 9.13544 38.0001 11.0718 38.0001C13.0222 38.0001 13.1065 38.0002 13.1065 38.2805C13.1065 38.4347 12.9662 38.603 12.7557 38.7011C12.5733 38.7712 12.3067 38.9816 12.1944 39.1498C12.026 39.4021 11.9839 39.9629 11.9979 41.9958C11.9979 43.3696 12.0541 44.7996 12.1243 45.1502C12.1944 45.4866 12.3627 45.9214 12.503 46.1036C12.6434 46.2859 12.9381 46.5803 13.1486 46.7345C13.4573 46.9588 13.7521 47.0428 14.3695 47.0428C14.9869 47.0428 15.2956 46.9587 15.5902 46.7485C15.8147 46.5942 16.1235 46.1737 16.306 45.8372C16.6147 45.2344 16.6287 45.0941 16.5445 39.0516L16.0955 38.8413C15.7868 38.6871 15.6465 38.5189 15.6324 38.3086C15.6324 38.0002 15.6746 38.0001 17.1059 38.0001L17.5801 38.0008Z" fill="white"/>
<path d="M27.911 38.0001C29.4404 38.0001 29.5247 38.0142 29.5247 38.2805C29.5247 38.4488 29.3703 38.617 29.1177 38.7292C28.8792 38.8273 28.6266 39.0517 28.5564 39.2199C28.4582 39.4162 28.4021 41.1827 28.4021 48.0943L27.9531 47.9963C27.7005 47.9542 27.4478 47.8701 27.4057 47.828C27.3636 47.7719 26.4656 46.6363 25.4272 45.2904C24.4028 43.9305 23.0837 42.2061 21.456 40.0471L21.4279 43.1874C21.3998 45.5007 21.4279 46.4401 21.5682 46.7345C21.6665 46.9588 21.919 47.2252 22.1295 47.3373C22.368 47.4495 22.4943 47.6177 22.4803 47.7719C22.4382 47.9681 22.3119 48.0103 21.877 47.9963C21.5682 47.9963 20.8946 47.9822 20.3754 47.9682C19.5615 47.9542 19.4212 47.9121 19.4352 47.7018C19.4352 47.5616 19.6317 47.3233 19.8843 47.1691C20.1649 47.0008 20.3753 46.7344 20.4315 46.4681C20.4736 46.2438 20.5157 44.6735 20.5297 42.9771C20.5438 41.2668 20.5158 39.6965 20.4737 39.4722C20.4176 39.1638 20.2491 38.9675 19.9124 38.7993C19.6037 38.6451 19.4212 38.4488 19.4212 38.2805V38.2666C19.4212 38.0142 19.5195 38.0001 22.2979 38.0001L22.8592 38.7292C23.168 39.1218 24.3187 40.6359 27.4198 44.7296V42.0658C27.4198 40.5938 27.3636 39.29 27.3075 39.1498C27.2373 39.0096 26.9848 38.8133 26.7322 38.7011C26.4796 38.575 26.2972 38.3787 26.2972 38.2385C26.2972 38.0142 26.4797 38.0001 27.911 38.0001Z" fill="white"/>
<path fill-rule="evenodd" clip-rule="evenodd" d="M45.3394 38.0143C45.8446 38.0143 45.9709 38.0563 46.0692 38.3227C46.1394 38.4912 46.8411 40.3136 47.6269 42.3462C48.4267 44.3931 49.1844 46.2999 49.3248 46.5943C49.4931 46.9027 49.7598 47.1972 50.0124 47.2953C50.307 47.4215 50.4334 47.5617 50.4334 47.786C50.4334 48.0944 50.4332 48.0944 48.3706 48.0664C46.5184 48.0383 46.2938 48.0102 46.2657 47.786C46.2376 47.6318 46.392 47.4495 46.7147 47.2953C47.0655 47.1271 47.2199 46.9588 47.2059 46.7345C47.2059 46.5663 47.0656 46.0755 46.5744 44.8698L43.2767 44.8839L43.0101 45.4727C42.8557 45.7952 42.7154 46.2859 42.6873 46.5662C42.6593 46.9868 42.7014 47.071 43.1083 47.2672C43.417 47.4074 43.5574 47.5757 43.5574 47.786C43.5574 48.0803 43.5152 48.0944 42.547 48.0803C41.9857 48.0803 41.228 48.0242 40.8631 47.9822C40.4562 47.9261 40.1897 47.814 40.1896 47.7159C40.1896 47.6177 40.428 47.4355 40.7087 47.2953C41.0735 47.1271 41.3121 46.8466 41.5647 46.3559C41.7612 45.9634 42.1681 44.9819 42.4768 44.1688C42.7715 43.3697 43.3047 41.9538 43.6555 41.0285C44.0063 40.0892 44.3853 39.0378 44.5116 38.6732C44.7221 38.0143 44.7361 38.0143 45.3394 38.0143ZM45.0167 40.3695C44.9465 40.3696 44.7642 40.7341 44.6098 41.1687C44.4414 41.6173 44.1467 42.4024 43.9503 42.9211L43.5714 43.8744C45.9006 43.8744 46.2235 43.8324 46.1955 43.6922C46.1674 43.6081 45.9148 42.809 45.6482 41.9398C45.3675 41.0846 45.0869 40.3695 45.0167 40.3695Z" fill="white"/>
<path d="M104.81 38.0143C107.967 38.0143 108.248 38.0283 108.304 38.2526C108.346 38.3929 108.388 38.9395 108.416 39.4722C108.444 40.0329 108.402 40.4675 108.318 40.4817C108.234 40.5097 108.051 40.2994 107.897 40.019C107.743 39.7246 107.392 39.3462 107.125 39.1639C106.718 38.8975 106.452 38.8414 104.459 38.8554V42.3603H105.512C106.522 42.3603 106.578 42.3463 106.873 41.9398C107.055 41.7015 107.28 41.5052 107.364 41.5192C107.504 41.5192 107.546 41.9117 107.546 42.9912C107.546 44.1968 107.504 44.4632 107.336 44.4633C107.224 44.4633 107.083 44.3511 107.041 44.211C106.985 44.0848 106.816 43.8324 106.648 43.6502C106.396 43.3838 106.213 43.3277 104.459 43.3417V44.954C104.459 45.8372 104.515 46.6924 104.599 46.8466C104.712 47.0709 104.88 47.127 105.539 47.127C105.989 47.127 106.578 47.0849 106.845 47.0289C107.139 46.9728 107.532 46.7204 107.827 46.4119C108.094 46.1316 108.416 45.7671 108.529 45.5988C108.655 45.4166 108.809 45.3466 108.921 45.4026C109.062 45.4868 109.048 45.7674 108.599 48.0383L105.048 48.0664C101.793 48.1084 101.498 48.0803 101.414 47.8561C101.358 47.6878 101.442 47.5336 101.667 47.3794C101.849 47.2392 102.116 47.0429 102.242 46.9167C102.466 46.7205 102.495 46.3559 102.495 43.0613C102.495 40.9025 102.438 39.3043 102.354 39.1358C102.27 38.9816 102.017 38.7853 101.793 38.7152C101.512 38.6218 101.372 38.4816 101.372 38.2946C101.372 38.0143 101.47 38.0143 104.81 38.0143Z" fill="white"/>
<path d="M7.92845 38.3086C7.92845 38.4768 7.46539 39.304 6.90409 40.1592C6.34279 41.0144 5.5008 42.2902 5.05175 43.0052C4.58868 43.7062 3.81683 44.9119 2.46969 47.0289L4.25186 47.0709C5.79544 47.0989 6.07614 47.0709 6.38485 46.8466C6.5813 46.7064 6.94613 46.2718 7.19872 45.8933C7.46533 45.5148 7.77405 45.1782 7.90035 45.1502C8.11084 45.1081 8.12487 45.2343 8.04068 46.482C7.98455 47.2531 7.87231 47.912 7.78812 47.9822C7.70392 48.0382 5.92179 48.0663 3.81691 48.0523C0.112289 48.0102 0 47.9962 0 47.7298C0 47.5756 1.24888 45.5708 2.77844 43.2856C4.29396 40.9864 5.5429 39.0797 5.5429 39.0377C5.5429 38.9956 4.75707 38.9676 2.03473 38.9676L1.52961 39.4302C1.26301 39.6685 0.982356 40.0891 0.898144 40.3415C0.827981 40.5938 0.673567 40.7901 0.561306 40.7901C0.420979 40.7901 0.350816 40.6499 0.350816 40.3415C0.350819 40.0891 0.392861 39.4582 0.434957 38.9395L0.533213 37.9862H7.92845V38.3086Z" fill="white"/>
<path fill-rule="evenodd" clip-rule="evenodd" d="M66.5287 38.0143C68.4652 38.0143 69.3633 38.0703 69.8966 38.2245C70.3175 38.3367 70.8509 38.6311 71.1315 38.8835C71.4964 39.2199 71.6788 39.5284 71.777 40.0471C71.8892 40.5518 71.8892 40.9164 71.777 41.3369C71.6928 41.6734 71.4683 42.108 71.2859 42.3183C71.1034 42.5286 70.6964 42.837 69.8124 43.2716L70.1632 43.7203C70.3456 43.9726 70.5001 44.2109 70.5001 44.253C70.5002 44.2953 70.8649 44.8981 71.2998 45.6129C71.8424 46.4634 72.2868 47.0009 72.6329 47.2252C72.9697 47.4215 73.1521 47.6318 73.1241 47.786C73.096 48.0102 72.9276 48.0383 71.8332 48.0102C70.6264 47.9962 70.5561 47.9822 70.2474 47.5896C70.079 47.3793 69.5738 46.4961 69.1529 45.655C68.7179 44.7998 68.2548 44.0008 68.1285 43.8605C67.9882 43.7063 67.7075 43.6081 66.8516 43.6221V45.1643C66.8516 46.6223 66.8656 46.7205 67.2024 47.0569C67.3988 47.2532 67.6515 47.4074 67.7637 47.4074C67.8759 47.4075 67.9742 47.5336 67.9742 47.6878C67.9742 47.842 67.932 47.9962 67.8618 48.0242C67.8056 48.0662 66.8935 48.0383 65.8271 47.9963C64.1293 47.9122 63.9048 47.87 63.9047 47.6458C63.9047 47.5196 64.003 47.4074 64.1152 47.4074C64.2415 47.4074 64.4942 47.2531 65.0273 46.7064V39.4162L64.6765 39.0657C64.4801 38.8695 64.2275 38.7153 64.1152 38.7152C63.9889 38.7152 63.9047 38.575 63.9047 38.3647V38.0143H66.5287ZM66.8656 38.8274V42.7529C68.5775 42.6828 68.7319 42.6267 69.1108 42.2622C69.3493 42.0238 69.6019 41.5892 69.6721 41.2808C69.7423 40.9724 69.7563 40.5237 69.7142 40.2994C69.6721 40.0611 69.5459 39.7387 69.4476 39.5564C69.3354 39.3882 69.0266 39.1498 68.76 39.0377C68.4933 38.9255 67.9461 38.8274 67.5672 38.8274H66.8656Z" fill="white"/>
<path fill-rule="evenodd" clip-rule="evenodd" d="M30.4929 38.0983C30.5211 38.0282 31.8823 38.0143 33.5099 38.0423C35.7411 38.0844 36.6533 38.1684 37.2146 38.3367C37.6216 38.4629 38.2811 38.8414 38.688 39.1779C39.1651 39.5564 39.5721 40.0611 39.8387 40.5938C40.2316 41.3649 40.2597 41.5191 40.2597 42.9771C40.2597 44.2529 40.2176 44.6455 39.9791 45.1643C39.8107 45.5007 39.4599 46.0335 39.2073 46.3279C38.9407 46.6223 38.4635 47.0149 38.1548 47.1971C37.8461 47.3794 37.1866 47.6317 36.6814 47.7579C35.9938 47.9402 35.1378 48.0102 33.1031 48.0102C30.437 48.0243 30.4368 48.0243 30.4088 47.7159C30.3807 47.5336 30.4509 47.4074 30.5491 47.4074C30.6473 47.4074 30.9 47.2812 31.4893 46.8466L31.4192 39.0657L30.928 38.8274C30.6614 38.7012 30.4369 38.5189 30.4369 38.4068C30.4228 38.3086 30.4508 38.1684 30.4929 38.0983ZM34.9413 38.8975C34.4782 38.8694 33.9731 38.8694 33.8187 38.9114C33.5521 38.9815 33.5381 39.0937 33.5661 42.865C33.5942 45.7811 33.6503 46.7905 33.7766 46.9307C33.8748 47.0288 34.2958 47.099 34.7308 47.099C35.1518 47.099 35.7271 47.0289 35.9937 46.9448C36.2603 46.8467 36.6953 46.6364 36.9479 46.4541C37.1865 46.2719 37.5514 45.8512 37.7338 45.5148C37.9303 45.1923 38.1548 44.5474 38.239 44.0847C38.3793 43.4258 38.3793 43.0192 38.239 42.2622C38.1548 41.7154 37.9302 41.0004 37.7478 40.6499C37.5794 40.2994 37.3129 39.9209 37.1725 39.7807C37.0182 39.6545 36.6533 39.4161 36.3446 39.2619C36.0218 39.0797 35.4324 38.9395 34.9413 38.8975Z" fill="white"/>
<path d="M71.6367 1.74538L65.8833 7.49344C62.7259 10.6619 60.1579 13.2555 60.172 13.2696C60.186 13.2696 61.028 13.4238 62.0243 13.592C63.0206 13.7602 64.6765 14.0826 65.6728 14.3069C66.6691 14.5312 68.4092 15.0079 69.5318 15.3584C70.6544 15.7229 72.2962 16.3258 73.1803 16.7183C74.0643 17.0969 74.9905 17.5175 75.215 17.6577C75.4395 17.7839 76.099 18.1344 77.6847 18.9896L77.6707 19.8027C77.6707 20.2371 77.6567 20.6016 77.6286 20.6018C77.6146 20.6018 77.2497 20.4616 76.8287 20.2653C76.4077 20.083 75.1027 19.6485 73.952 19.298C72.7873 18.9475 70.8649 18.4709 69.6721 18.2465C68.4793 18.0082 66.9357 17.7137 66.2341 17.6016C65.5325 17.4754 63.9327 17.2931 62.6558 17.181C61.3788 17.0548 59.4844 16.9287 56.5516 16.7745L46.5884 26.9246H55.6394C63.2311 26.9106 64.8168 26.8826 65.4904 26.7004C65.9394 26.5882 66.613 26.3358 67.0059 26.1396C67.3848 25.9433 68.0022 25.5227 68.353 25.2002C68.7318 24.8357 69.1949 24.2049 69.4756 23.616C69.7422 23.0693 69.9527 22.5505 69.9527 22.4664C69.9528 22.3402 70.2195 22.2842 71.6367 22.2842V30.696H37.2567V28.9435L43.1504 22.9431C46.3909 19.6496 49.0424 16.9444 49.0441 16.9147C49.0441 16.9007 48.1741 16.9708 47.1076 17.0549C46.0552 17.153 44.5397 17.3212 43.7398 17.4474C42.954 17.5595 41.0876 17.91 39.6002 18.2185C38.1267 18.5129 36.6533 18.8353 36.3446 18.9195C36.0358 19.0036 35.0956 19.298 34.2397 19.5784C33.3837 19.8448 32.4154 20.2232 32.0646 20.4055C31.7138 20.5877 31.3771 20.6859 31.3209 20.6299C31.2648 20.5738 31.2226 20.2373 31.2226 19.8588C31.2226 19.312 31.2788 19.1578 31.6015 18.9055C31.8261 18.7513 32.5978 18.3166 33.3275 17.9381C34.0572 17.5736 35.3482 16.9848 36.2042 16.6343C37.0602 16.2838 38.8143 15.6809 40.1334 15.3024C41.4524 14.9099 43.5012 14.3911 44.694 14.1667C45.8868 13.9284 47.6549 13.648 48.6231 13.5359C49.5914 13.4097 50.9245 13.2836 52.8329 13.1714L61.6595 4.26892L53.1417 4.22689C47.1498 4.19885 44.3713 4.24083 43.7819 4.35298C43.3188 4.4371 42.561 4.70356 42.0979 4.92787C41.6349 5.16621 40.9052 5.713 40.4842 6.14761C39.951 6.69436 39.558 7.26912 39.2212 8.02616C38.8003 8.95146 38.688 9.10565 38.4495 9.04957C38.2951 9.00751 37.9583 8.9655 37.2567 8.9655V0.553711H71.6367V1.74538Z" fill="white"/>
</svg>
