<svg width="16" height="17" viewBox="0 0 16 17" fill="none" xmlns="http://www.w3.org/2000/svg">
<path d="M15.8032 5.57815C15.7661 4.73668 15.63 4.15818 15.4349 3.65691C15.2337 3.12481 14.9241 2.64843 14.5186 2.25241C14.1223 1.85023 13.6425 1.53772 13.1162 1.33977C12.6118 1.14484 12.0359 1.00877 11.1939 0.971667C10.3457 0.931424 10.0764 0.922119 7.92496 0.922119C5.77352 0.922119 5.50423 0.931424 4.65911 0.968525C3.81713 1.00563 3.23828 1.14182 2.73682 1.33663C2.20428 1.53772 1.72761 1.84709 1.33135 2.25241C0.928921 2.64843 0.616339 3.12796 0.418149 3.65389C0.223103 4.15818 0.0869449 4.73354 0.049822 5.57501C0.00955509 6.42275 0.000244141 6.69188 0.000244141 8.84201C0.000244141 10.9921 0.00955509 11.2613 0.046678 12.1059C0.0838009 12.9473 0.220079 13.5258 0.415126 14.0271C0.616339 14.5592 0.928921 15.0356 1.33135 15.4316C1.72761 15.8338 2.20742 16.1463 2.73368 16.3442C3.23828 16.5392 3.81399 16.6752 4.65609 16.7123C5.50109 16.7496 5.7705 16.7588 7.92193 16.7588C10.0734 16.7588 10.3427 16.7496 11.1878 16.7123C12.0298 16.6752 12.6086 16.5392 13.1101 16.3442C14.175 15.9328 15.017 15.0913 15.4287 14.0271C15.6237 13.5228 15.7599 12.9473 15.7971 12.1059C15.8342 11.2613 15.8435 10.9921 15.8435 8.84201C15.8435 6.69188 15.8404 6.42275 15.8032 5.57815ZM14.3762 12.044C14.3421 12.8174 14.2122 13.2351 14.1038 13.5135C13.8375 14.2034 13.2896 14.751 12.5993 15.0171C12.3207 15.1254 11.8998 15.2553 11.1289 15.2892C10.2931 15.3265 10.0424 15.3357 7.9281 15.3357C5.81379 15.3357 5.55997 15.3265 4.72719 15.2892C3.95329 15.2553 3.53539 15.1254 3.25678 15.0171C2.91324 14.8902 2.60054 14.6891 2.34673 14.4261C2.0836 14.1693 1.88239 13.86 1.75542 13.5166C1.64707 13.2382 1.51708 12.8174 1.4831 12.0471C1.44586 11.2118 1.43667 10.9612 1.43667 8.84817C1.43667 6.73515 1.44586 6.48149 1.4831 5.64933C1.51708 4.8759 1.64707 4.45825 1.75542 4.17982C1.88239 3.83637 2.0836 3.52397 2.34987 3.27019C2.60671 3.00723 2.91627 2.80614 3.25993 2.67937C3.53853 2.57109 3.95958 2.44118 4.73033 2.4071C5.56614 2.37 5.81693 2.36069 7.93112 2.36069C10.0486 2.36069 10.2993 2.37 11.132 2.4071C11.9059 2.44118 12.3238 2.57109 12.6024 2.67937C12.946 2.80614 13.2587 3.00723 13.5125 3.27019C13.7756 3.527 13.9768 3.83637 14.1038 4.17982C14.2122 4.45825 14.3421 4.87892 14.3762 5.64933C14.4134 6.48463 14.4227 6.73515 14.4227 8.84817C14.4227 10.9612 14.4134 11.2087 14.3762 12.044Z" fill="white"/>
<path d="M7.92501 4.77368C5.67769 4.77368 3.85431 6.59583 3.85431 8.84191C3.85431 11.088 5.67769 12.9101 7.92501 12.9101C10.1725 12.9101 11.9957 11.088 11.9957 8.84191C11.9957 6.59583 10.1725 4.77368 7.92501 4.77368ZM7.92501 11.4809C6.46706 11.4809 5.28445 10.2991 5.28445 8.84191C5.28445 7.38472 6.46706 6.20295 7.92501 6.20295C9.38309 6.20295 10.5656 7.38472 10.5656 8.84191C10.5656 10.2991 9.38309 11.4809 7.92501 11.4809Z" fill="white"/>
<path d="M13.1081 4.61259C13.1081 5.13707 12.6824 5.56233 12.1572 5.56233C11.6321 5.56233 11.2063 5.13707 11.2063 4.61259C11.2063 4.08798 11.6321 3.66284 12.1572 3.66284C12.6824 3.66284 13.1081 4.08798 13.1081 4.61259Z" fill="white"/>
</svg>
