<svg width="41" height="42" viewBox="0 0 41 42" fill="none" xmlns="http://www.w3.org/2000/svg">
<path d="M23.1426 33.7906V36.1929C28.9589 36.1929 33.6908 31.4592 33.6908 25.6406H31.2884C31.2884 30.1345 27.6342 33.7906 23.1426 33.7906Z" fill="white"/>
<path d="M18.0121 5.51953V3.11719C12.5388 3.11719 8.08594 7.57177 8.08594 13.0472H10.4883C10.4883 8.89643 13.8635 5.51953 18.0121 5.51953Z" fill="white"/>
<path d="M17.4236 25.229V22.5098C17.4236 18.7566 14.3701 15.7031 10.6169 15.7031C6.86374 15.7031 3.81028 18.7566 3.81028 22.5098V25.229H1.5632L0 41.1597H21.2339L19.6707 25.229H17.4236ZM13.3117 32.4054H11.8181V36.3552H9.41575V32.4054H7.92213V30.0031H13.3118V32.4054H13.3117ZM15.0212 25.229H6.21262V22.5098C6.21262 20.0812 8.18839 18.1055 10.6169 18.1055C13.0454 18.1055 15.0212 20.0812 15.0212 22.5098V25.229Z" fill="white"/>
<path d="M35.8302 0.160156H23.4941V21.8613H40.9999V5.32984L35.8302 0.160156ZM34.7166 15.0123H29.7774V12.6115H34.7166V15.0123ZM35.8583 10.2108H28.6356V7.80994H35.8583V10.2108Z" fill="white"/>
</svg>
