<svg width="43" height="44" viewBox="0 0 43 44" fill="none" xmlns="http://www.w3.org/2000/svg">
<g clip-path="url(#clip0_820_24692)">
<path fill-rule="evenodd" clip-rule="evenodd" d="M32.7542 43.1602H10.2463C7.72681 43.1602 5.71118 41.1445 5.71118 38.625V7.55078C5.71118 5.03125 7.72681 3.01562 10.2463 3.01562H32.7542C35.2737 3.01562 37.2893 5.03125 37.2893 7.55078V38.625C37.2893 41.1445 35.2737 43.1602 32.7542 43.1602ZM30.7385 39.8848H12.262C12.01 39.8848 11.7581 39.6328 11.7581 39.3809C11.7581 39.0449 12.01 38.877 12.262 38.877H30.7385C30.9905 38.877 31.2424 39.0449 31.2424 39.3809C31.2424 39.6328 30.9905 39.8848 30.7385 39.8848ZM30.7385 13.3457H12.262C12.01 13.3457 11.7581 13.0938 11.7581 12.8418C11.7581 12.5059 12.01 12.3379 12.262 12.3379H30.7385C30.9905 12.3379 31.2424 12.5059 31.2424 12.8418C31.2424 13.0938 30.9905 13.3457 30.7385 13.3457ZM21.5002 36.6934C19.6526 36.6934 17.8049 36.2734 16.2092 35.2656C13.6897 33.8379 11.926 31.5703 11.2542 28.7988C10.4983 26.1113 10.8342 23.2559 12.262 20.7363C14.1936 17.4609 17.7209 15.4453 21.5002 15.4453C23.3479 15.4453 25.1956 15.9492 26.7913 16.873H26.8752C29.3108 18.3008 31.0745 20.5684 31.7463 23.3398C32.5022 26.1113 32.1663 28.9668 30.7385 31.4023C28.8069 34.6777 25.2795 36.6934 21.5002 36.6934ZM21.5002 16.4531C18.0569 16.4531 14.8655 18.3008 13.1858 21.2402C11.842 23.5078 11.5061 26.1113 12.178 28.5469C12.8499 31.0664 14.4456 33.166 16.7131 34.4258C18.1409 35.2656 19.8206 35.6855 21.5002 35.6855C24.9436 35.6855 28.135 33.8379 29.8147 30.8984C31.1584 28.7148 31.4944 26.1113 30.8225 23.5918C30.1506 21.0723 28.5549 19.0566 26.2874 17.7129C24.8596 16.873 23.1799 16.4531 21.5002 16.4531ZM25.8674 32.7461H17.1331C16.5452 32.7461 16.0413 32.2422 16.0413 31.6543V25.8594C16.0413 25.2715 16.5452 24.6836 17.1331 24.6836H17.385V23.5078C17.385 21.2402 19.2327 19.3926 21.5002 19.3926C23.7678 19.3926 25.6155 21.2402 25.6155 23.5078V24.6836H25.8674C26.4553 24.6836 26.9592 25.2715 26.9592 25.8594V31.6543C26.9592 32.2422 26.4553 32.7461 25.8674 32.7461ZM18.3928 24.6836H24.6077V23.5078C24.6077 21.7441 23.1799 20.4004 21.5002 20.4004C19.8206 20.4004 18.3928 21.7441 18.3928 23.5078V24.6836ZM17.1331 25.6914C17.1331 25.6914 17.0491 25.7754 17.0491 25.8594V31.6543C17.0491 31.7383 17.1331 31.7383 17.1331 31.7383H25.8674C25.8674 31.7383 25.9514 31.7383 25.9514 31.6543V25.8594C25.9514 25.7754 25.8674 25.6914 25.8674 25.6914H25.1116H17.8889H17.1331ZM21.5002 29.3027C21.3323 29.3027 21.2483 29.3867 21.1643 29.4707C21.0803 29.6387 21.1643 29.8906 21.3323 29.9746H21.5002C21.5842 29.9746 21.7522 29.9746 21.8362 29.8066C21.8362 29.7227 21.8362 29.6387 21.8362 29.5547C21.8362 29.4707 21.7522 29.3867 21.6682 29.3867C21.5842 29.3027 21.5842 29.3027 21.5002 29.3027ZM20.9963 28.3789V26.9512C20.9963 26.6992 21.2483 26.4473 21.5002 26.4473C21.7522 26.4473 22.0042 26.6992 22.0042 26.9512V28.3789C22.0881 28.4629 22.0881 28.4629 22.1721 28.4629C22.5081 28.6309 22.676 28.9668 22.844 29.3027C22.928 29.6387 22.844 30.0586 22.676 30.3105C22.4241 30.7305 22.0042 30.9824 21.5002 30.9824C21.2483 30.9824 20.9963 30.9824 20.8284 30.8145C20.1565 30.4785 19.9885 29.6387 20.3245 28.9668C20.4924 28.7148 20.7444 28.5469 20.9963 28.3789ZM11.842 9.98633C10.4983 9.98633 9.40649 8.89453 9.40649 7.63477C9.40649 6.29102 10.4983 5.19922 11.842 5.19922C13.1018 5.19922 14.1936 6.29102 14.1936 7.63477C14.1936 8.89453 13.1018 9.98633 11.842 9.98633ZM31.1584 9.98633C29.8987 9.98633 28.8069 8.89453 28.8069 7.63477C28.8069 6.29102 29.8987 5.19922 31.1584 5.19922C32.5022 5.19922 33.594 6.29102 33.594 7.63477C33.594 8.89453 32.5022 9.98633 31.1584 9.98633ZM31.1584 6.20703C30.4026 6.20703 29.8147 6.79492 29.8147 7.63477C29.8147 8.39062 30.4026 8.97852 31.1584 8.97852C31.9983 8.97852 32.5862 8.39062 32.5862 7.63477C32.5862 6.79492 31.9983 6.20703 31.1584 6.20703ZM24.6917 9.98633C23.4319 9.98633 22.3401 8.89453 22.3401 7.63477C22.3401 6.29102 23.4319 5.19922 24.6917 5.19922C26.0354 5.19922 27.1272 6.29102 27.1272 7.63477C27.1272 8.89453 26.0354 9.98633 24.6917 9.98633ZM24.6917 6.20703C23.9358 6.20703 23.3479 6.79492 23.3479 7.63477C23.3479 8.39062 23.9358 8.97852 24.6917 8.97852C25.5315 8.97852 26.1194 8.39062 26.1194 7.63477C26.1194 6.79492 25.5315 6.20703 24.6917 6.20703ZM18.3088 9.98633C16.9651 9.98633 15.8733 8.89453 15.8733 7.63477C15.8733 6.29102 16.9651 5.19922 18.3088 5.19922C19.5686 5.19922 20.6604 6.29102 20.6604 7.63477C20.6604 8.89453 19.5686 9.98633 18.3088 9.98633ZM18.3088 6.20703C17.469 6.20703 16.8811 6.79492 16.8811 7.63477C16.8811 8.39062 17.469 8.97852 18.3088 8.97852C19.0647 8.97852 19.6526 8.39062 19.6526 7.63477C19.6526 6.79492 19.0647 6.20703 18.3088 6.20703ZM11.842 6.20703C11.0022 6.20703 10.4143 6.79492 10.4143 7.63477C10.4143 8.39062 11.0022 8.97852 11.842 8.97852C12.5979 8.97852 13.1858 8.39062 13.1858 7.63477C13.1858 6.79492 12.5979 6.20703 11.842 6.20703Z" fill="white"/>
<path fill-rule="evenodd" clip-rule="evenodd" d="M11.842 5.19922C11.5061 5.19922 11.3381 5.03125 11.3381 4.7793V0.580078C11.3381 0.328125 11.5061 0.160156 11.842 0.160156C12.094 0.160156 12.3459 0.328125 12.3459 0.580078V4.7793C12.3459 5.03125 12.094 5.19922 11.842 5.19922Z" fill="white"/>
<path fill-rule="evenodd" clip-rule="evenodd" d="M18.3088 5.19922C17.9729 5.19922 17.8049 5.03125 17.8049 4.7793V0.580078C17.8049 0.328125 17.9729 0.160156 18.3088 0.160156C18.5608 0.160156 18.8127 0.328125 18.8127 0.580078V4.7793C18.8127 5.03125 18.5608 5.19922 18.3088 5.19922Z" fill="white"/>
<path fill-rule="evenodd" clip-rule="evenodd" d="M24.6917 5.19922C24.4397 5.19922 24.1877 5.03125 24.1877 4.7793V0.580078C24.1877 0.328125 24.4397 0.160156 24.6917 0.160156C25.0276 0.160156 25.1956 0.328125 25.1956 0.580078V4.7793C25.1956 5.03125 25.0276 5.19922 24.6917 5.19922Z" fill="white"/>
<path fill-rule="evenodd" clip-rule="evenodd" d="M31.1584 5.19922C30.9065 5.19922 30.6545 5.03125 30.6545 4.7793V0.580078C30.6545 0.328125 30.9065 0.160156 31.1584 0.160156C31.4944 0.160156 31.6624 0.328125 31.6624 0.580078V4.7793C31.6624 5.03125 31.4944 5.19922 31.1584 5.19922Z" fill="white"/>
</g>
<defs>
<clipPath id="clip0_820_24692">
<rect width="43" height="43" fill="white" transform="translate(0 0.160156)"/>
</clipPath>
</defs>
</svg>
