<svg width="45" height="47" viewBox="0 0 45 47" fill="none" xmlns="http://www.w3.org/2000/svg">
<path fill-rule="evenodd" clip-rule="evenodd" d="M36.9043 8.65951C37.2396 8.65951 37.5104 8.93125 37.5104 9.26561V14.3881H38.7518C39.0862 14.3881 39.3579 14.6598 39.3579 14.9942C39.3579 15.3286 39.0862 15.6003 38.7518 15.6003H35.0577C34.7233 15.6003 34.4516 15.3286 34.4516 14.9942C34.4516 14.6588 34.7233 14.3881 35.0577 14.3881H36.2982V9.8717H35.0345C34.7001 9.8717 34.4284 9.59997 34.4284 9.26561C34.4284 8.93125 34.7001 8.65951 35.0345 8.65951H36.9043ZM17.0931 19.3045H24.0945V18.0014C24.0945 16.071 22.5237 14.5002 20.5943 14.5002C18.6639 14.5002 17.0931 16.071 17.0931 18.0014V19.3045ZM20.5933 26.2645C21.3105 26.2645 21.8954 25.6796 21.8954 24.9624C21.8954 24.2442 21.3105 23.6603 20.5933 23.6603C19.8751 23.6603 19.2902 24.2442 19.2902 24.9624C19.2912 25.6796 19.8751 26.2645 20.5933 26.2645ZM27.4745 31.7304H13.7131V20.5167H27.4745V31.7304ZM23.1086 24.9614C23.1086 26.1392 22.2944 27.1292 21.2004 27.4019V29.1939C21.2004 29.5283 20.9287 29.8 20.5943 29.8C20.2589 29.8 19.9882 29.5283 19.9882 29.1939V27.4019C18.8932 27.1302 18.079 26.1392 18.079 24.9614C18.079 23.5744 19.2074 22.4471 20.5943 22.4471C21.9802 22.4471 23.1086 23.5755 23.1086 24.9614ZM36.3749 18.8742C31.6292 18.6055 27.8513 14.6598 27.8513 9.84746C27.8513 9.25854 27.9078 8.68275 28.0159 8.12514L20.5933 5.35732L4.8652 11.2233C3.61968 26.5574 8.76742 36.7004 20.5933 42.2138C30.3524 37.6651 35.5204 30.0223 36.3749 18.8742ZM28.6867 20.4955V31.7506C28.6867 32.4082 28.1523 32.9416 27.4957 32.9416H13.6919C13.0353 32.9416 12.501 32.4072 12.501 31.7506V20.4955C12.501 19.8389 13.0353 19.3045 13.6919 19.3045H15.8809V18.0014C15.8809 15.4033 17.9952 13.2891 20.5943 13.2891C23.1924 13.2891 25.3067 15.4033 25.3067 18.0014V19.3045H27.4957C28.1513 19.3045 28.6867 19.8389 28.6867 20.4955ZM28.3281 6.9473C28.6634 5.95836 29.1665 5.04518 29.8019 4.24312L20.5943 0.808594L0.798316 8.19181L0.505371 11.5273C-0.963393 28.2838 5.05309 39.8703 18.3891 45.9655L20.5933 46.9727L22.7975 45.9655C34.2981 40.7087 40.3721 31.293 40.858 17.9711C39.86 18.4621 38.7549 18.7732 37.5902 18.8631C37.1538 24.7068 35.5204 29.7323 32.7323 33.8063C29.9615 37.855 25.9613 41.0936 20.8438 43.4331C20.764 43.4694 20.6782 43.4876 20.5923 43.4876C20.5054 43.4876 20.4196 43.4694 20.3398 43.4331C14.2192 40.636 9.71293 36.5559 6.94612 31.3072C4.06718 25.8463 2.97116 18.9247 3.68938 10.7364C3.70958 10.5041 3.86212 10.303 4.08132 10.2212L20.3802 4.1421C20.5165 4.09059 20.667 4.09059 20.8034 4.1421L28.3281 6.9473ZM36.5436 5.66744C36.5436 5.46844 36.7053 5.30681 36.9043 5.30681C37.1033 5.30681 37.2659 5.46844 37.2659 5.66744C37.2659 5.86644 37.1033 6.02806 36.9043 6.02806C36.7043 6.02907 36.5436 5.86644 36.5436 5.66744ZM36.8932 2.01775C32.5758 2.01775 29.0634 5.53006 29.0634 9.84746C29.0634 14.1649 32.5758 17.6772 36.8932 17.6772C41.2106 17.6772 44.7208 14.1649 44.7208 9.84746C44.7208 5.53006 41.2095 2.01775 36.8932 2.01775ZM38.4781 5.66744C38.4781 6.53415 37.772 7.24025 36.9043 7.24025C36.0376 7.24025 35.3315 6.53415 35.3315 5.66744C35.3315 4.79971 36.0376 4.09362 36.9043 4.09362C37.772 4.09463 38.4781 4.79971 38.4781 5.66744Z" fill="white"/>
</svg>
