<svg width="41" height="42" viewBox="0 0 41 42" fill="none" xmlns="http://www.w3.org/2000/svg">
<g clip-path="url(#clip0_820_24718)">
<path d="M24.6674 15.2109C24.3393 15.2109 24.0112 15.3358 23.7614 15.5856C23.2618 16.0852 23.2618 16.898 23.7614 17.3976C24.2611 17.8972 25.0738 17.8973 25.5735 17.3976C26.0731 16.8981 26.073 16.0852 25.5734 15.5855C25.3236 15.3359 24.9954 15.2109 24.6674 15.2109Z" fill="white"/>
<path d="M24.667 7.42188C22.2439 7.42188 19.966 8.36544 18.2526 10.0788C16.5393 11.7921 15.5957 14.07 15.5957 16.4931C15.5957 18.9161 16.5393 21.194 18.2526 22.9074C19.966 24.6207 22.2439 25.5643 24.667 25.5643C27.09 25.5643 29.3679 24.6207 31.0812 22.9074C34.618 19.3706 34.618 13.6157 31.0812 10.0788C29.3679 8.36544 27.09 7.42188 24.667 7.42188ZM31.2571 17.8334H28.0967C27.9174 18.2942 27.6429 18.7261 27.2715 19.0975C26.8573 19.5118 26.3678 19.8058 25.8468 19.9811V23.0777H23.4448V19.9673C22.9396 19.7905 22.4655 19.5006 22.0625 19.0975C21.6911 18.7261 21.4165 18.2942 21.2372 17.8334H18.159V15.4314H21.1408C21.3099 14.8663 21.6169 14.3341 22.0624 13.8886C22.4655 13.4855 22.9396 13.1956 23.4447 13.0188V9.97965H25.8467V13.005C26.3677 13.1803 26.8571 13.4743 27.2714 13.8886C27.7169 14.3341 28.0239 14.8663 28.193 15.4314H31.2571V17.8334H31.2571Z" fill="white"/>
<path d="M36.2216 4.9383C29.8506 -1.43256 19.4844 -1.43256 13.1135 4.9383C6.99449 11.0574 6.75369 20.8614 12.3889 27.2719L10.1979 29.3629L8.20895 27.3333L5.76953 29.7727L11.3872 35.3903L13.7697 33.0078L11.8792 31.0785L14.1021 28.9571C17.0508 31.4647 20.7538 32.8322 24.6675 32.8322C29.0321 32.8322 33.1354 31.1326 36.2216 28.0464C42.5925 21.6755 42.5925 11.3093 36.2216 4.9383ZM32.7803 24.6052C30.6133 26.7722 27.7321 27.9656 24.6676 27.9656C21.603 27.9656 18.7218 26.7722 16.5548 24.6052C14.3877 22.4382 13.1943 19.557 13.1943 16.4925C13.1943 13.4279 14.3877 10.5466 16.5548 8.37966C18.7218 6.21266 21.603 5.01918 24.6676 5.01918C27.7321 5.01918 30.6133 6.21258 32.7803 8.37966C37.2537 12.853 37.2537 20.1318 32.7803 24.6052Z" fill="white"/>
<path d="M1.16159 34.3824C-0.387198 35.9312 -0.387198 38.4512 1.16159 40C1.93595 40.7743 2.95318 41.1615 3.97033 41.1615C4.98749 41.1615 6.00472 40.7743 6.77907 39.9999L9.68887 37.0902L4.07131 31.4727L1.16159 34.3824Z" fill="white"/>
</g>
<defs>
<clipPath id="clip0_820_24718">
<rect width="41" height="41" fill="white" transform="translate(0 0.160156)"/>
</clipPath>
</defs>
</svg>
